<svg width="150" height="150" viewBox="0 0 150 150" fill="none" xmlns="http://www.w3.org/2000/svg">
  <rect width="150" height="150" fill="#54FFE9"/>
  <path d="M51.5417 98.4583C45.1875 98.4583 39.0936 95.9341 34.6006 91.4411C30.1075 86.948 27.5833 80.8541 27.5833 74.5C27.5833 68.1458 30.1075 62.0519 34.6006 57.5589C39.0936 53.0658 45.1875 50.5416 51.5417 50.5416H65.9167C72.2708 50.5416 78.3647 53.0658 82.8578 57.5589C87.3508 62.0519 89.875 68.1458 89.875 74.5C89.875 75.7708 89.3702 76.9896 88.4716 77.8882C87.573 78.7868 86.3542 79.2916 85.0833 79.2916C83.8125 79.2916 82.5937 78.7868 81.6951 77.8882C80.7965 76.9896 80.2917 75.7708 80.2917 74.5C80.2917 70.6875 78.7772 67.0311 76.0813 64.3353C73.3855 61.6395 69.7292 60.125 65.9167 60.125H51.5417C47.7292 60.125 44.0729 61.6395 41.377 64.3353C38.6812 67.0311 37.1667 70.6875 37.1667 74.5C37.1667 78.3124 38.6812 81.9688 41.377 84.6646C44.0729 87.3605 47.7292 88.875 51.5417 88.875C52.8125 88.875 54.0313 89.3798 54.9299 90.2784C55.8285 91.177 56.3333 92.3958 56.3333 93.6666C56.3333 94.9375 55.8285 96.1562 54.9299 97.0549C54.0313 97.9535 52.8125 98.4583 51.5417 98.4583Z" fill="#464646"/>
  <path d="M99.4583 98.4583H85.0833C78.7292 98.4583 72.6353 95.9341 68.1422 91.4411C63.6492 86.948 61.125 80.8541 61.125 74.5C61.125 73.2291 61.6298 72.0104 62.5284 71.1117C63.4271 70.2131 64.6458 69.7083 65.9167 69.7083C67.1875 69.7083 68.4063 70.2131 69.3049 71.1117C70.2035 72.0104 70.7083 73.2291 70.7083 74.5C70.7083 78.3124 72.2228 81.9688 74.9187 84.6646C77.6145 87.3605 81.2708 88.875 85.0833 88.875H99.4583C103.271 88.875 106.927 87.3605 109.623 84.6646C112.319 81.9688 113.833 78.3124 113.833 74.5C113.833 70.6875 112.319 67.0311 109.623 64.3353C106.927 61.6395 103.271 60.125 99.4583 60.125C98.1875 60.125 96.9687 59.6201 96.0701 58.7215C95.1715 57.8229 94.6667 56.6041 94.6667 55.3333C94.6667 54.0625 95.1715 52.8437 96.0701 51.9451C96.9687 51.0465 98.1875 50.5416 99.4583 50.5416C105.812 50.5416 111.906 53.0658 116.399 57.5589C120.892 62.0519 123.417 68.1458 123.417 74.5C123.417 80.8541 120.892 86.948 116.399 91.4411C111.906 95.9341 105.812 98.4583 99.4583 98.4583Z" fill="#464646"/>
</svg>
