<svg width="754" height="628" viewBox="0 0 754 628" fill="none" xmlns="http://www.w3.org/2000/svg">
  <g clip-path="url(#clip0_103_2)">
    <path d="M3.91992 623.7C2.96659 623.7 2.18659 623.397 1.57992 622.79C0.973255 622.183 0.669922 621.403 0.669922 620.45V534.65C0.669922 533.697 0.973255 532.917 1.57992 532.31C2.18659 531.703 2.96659 531.4 3.91992 531.4H18.6099C19.4766 531.4 20.2132 531.703 20.8199 532.31C21.5132 532.917 21.8599 533.697 21.8599 534.65V539.46C23.8532 536.773 26.4966 534.563 29.7899 532.83C33.0832 531.01 37.1566 530.1 42.0099 530.1C46.3432 530.1 50.1566 530.793 53.4499 532.18C56.7432 533.48 59.5599 535.43 61.8999 538.03C64.2399 540.63 66.0599 543.793 67.3599 547.52C68.7466 551.247 69.5266 555.537 69.6999 560.39C69.7866 562.123 69.8299 563.727 69.8299 565.2C69.8299 566.673 69.7866 568.277 69.6999 570.01C69.5266 574.69 68.7899 578.893 67.4899 582.62C66.1899 586.347 64.3699 589.51 62.0299 592.11C59.6899 594.71 56.8299 596.747 53.4499 598.22C50.1566 599.607 46.3432 600.3 42.0099 600.3C37.7632 600.3 34.0366 599.563 30.8299 598.09C27.7099 596.53 25.1099 594.363 23.0299 591.59V620.45C23.0299 621.403 22.7266 622.183 22.1199 622.79C21.5132 623.397 20.7332 623.7 19.7799 623.7H3.91992ZM34.9899 582.88C37.9366 582.88 40.2332 582.273 41.8799 581.06C43.5266 579.847 44.6966 578.2 45.3899 576.12C46.1699 574.04 46.6466 571.743 46.8199 569.23C46.9932 566.543 46.9932 563.857 46.8199 561.17C46.6466 558.657 46.1699 556.36 45.3899 554.28C44.6966 552.2 43.5266 550.553 41.8799 549.34C40.2332 548.127 37.9366 547.52 34.9899 547.52C32.1299 547.52 29.8332 548.17 28.0999 549.47C26.3666 550.683 25.1099 552.287 24.3299 554.28C23.5499 556.273 23.1166 558.44 23.0299 560.78C22.9432 562.427 22.8999 564.03 22.8999 565.59C22.8999 567.15 22.9432 568.797 23.0299 570.53C23.1166 572.697 23.5932 574.733 24.4599 576.64C25.3266 578.46 26.6266 579.977 28.3599 581.19C30.0932 582.317 32.3032 582.88 34.9899 582.88ZM102.962 600.3C98.2816 600.3 94.0783 599.433 90.3516 597.7C86.7116 595.88 83.8083 593.453 81.6416 590.42C79.475 587.387 78.3916 583.963 78.3916 580.15C78.3916 573.997 80.905 569.143 85.9316 565.59C90.9583 561.95 97.6316 559.48 105.952 558.18L122.202 555.71V553.89C122.202 550.77 121.552 548.387 120.252 546.74C118.952 545.093 116.568 544.27 113.102 544.27C110.675 544.27 108.682 544.747 107.122 545.7C105.648 546.653 104.478 547.953 103.612 549.6C102.832 550.727 101.748 551.29 100.362 551.29H85.8016C84.8483 551.29 84.1116 551.03 83.5916 550.51C83.0716 549.903 82.855 549.21 82.9416 548.43C82.9416 546.87 83.505 545.093 84.6316 543.1C85.845 541.02 87.665 538.983 90.0916 536.99C92.5183 534.997 95.6383 533.35 99.4516 532.05C103.265 530.75 107.858 530.1 113.232 530.1C118.865 530.1 123.675 530.75 127.662 532.05C131.648 533.35 134.855 535.17 137.282 537.51C139.795 539.85 141.658 542.623 142.872 545.83C144.085 548.95 144.692 552.417 144.692 556.23V595.75C144.692 596.703 144.345 597.483 143.652 598.09C143.045 598.697 142.308 599 141.442 599H126.362C125.408 599 124.628 598.697 124.022 598.09C123.415 597.483 123.112 596.703 123.112 595.75V591.2C121.985 592.847 120.468 594.363 118.562 595.75C116.655 597.137 114.402 598.22 111.802 599C109.288 599.867 106.342 600.3 102.962 600.3ZM109.072 585.48C111.585 585.48 113.838 584.96 115.832 583.92C117.912 582.793 119.515 581.103 120.642 578.85C121.855 576.51 122.462 573.607 122.462 570.14V568.32L111.412 570.27C107.338 570.963 104.348 572.047 102.442 573.52C100.622 574.907 99.7116 576.553 99.7116 578.46C99.7116 579.933 100.145 581.19 101.012 582.23C101.878 583.27 103.005 584.093 104.392 584.7C105.778 585.22 107.338 585.48 109.072 585.48ZM192.511 627.6C185.838 627.6 180.291 626.733 175.871 625C171.538 623.267 168.071 621.187 165.471 618.76C162.958 616.333 161.138 613.907 160.011 611.48C158.885 609.14 158.278 607.277 158.191 605.89C158.105 604.937 158.408 604.157 159.101 603.55C159.795 602.943 160.618 602.64 161.571 602.64H178.081C178.861 602.64 179.511 602.813 180.031 603.16C180.638 603.593 181.115 604.287 181.461 605.24C181.895 606.193 182.458 607.19 183.151 608.23C183.931 609.27 184.971 610.093 186.271 610.7C187.658 611.393 189.521 611.74 191.861 611.74C194.461 611.74 196.628 611.307 198.361 610.44C200.095 609.66 201.395 608.317 202.261 606.41C203.128 604.59 203.561 602.12 203.561 599V590.29C201.568 592.457 199.011 594.233 195.891 595.62C192.771 596.92 189.001 597.57 184.581 597.57C180.161 597.57 176.261 596.92 172.881 595.62C169.501 594.32 166.685 592.37 164.431 589.77C162.178 587.17 160.401 584.007 159.101 580.28C157.888 576.553 157.151 572.263 156.891 567.41C156.805 565.157 156.805 562.903 156.891 560.65C157.151 555.97 157.888 551.767 159.101 548.04C160.315 544.313 162.048 541.107 164.301 538.42C166.641 535.733 169.501 533.697 172.881 532.31C176.261 530.837 180.161 530.1 184.581 530.1C189.261 530.1 193.248 531.01 196.541 532.83C199.921 534.563 202.695 536.773 204.861 539.46V534.65C204.861 533.783 205.165 533.047 205.771 532.44C206.378 531.747 207.158 531.4 208.111 531.4H223.061C224.015 531.4 224.795 531.747 225.401 532.44C226.095 533.047 226.441 533.783 226.441 534.65V597.18C226.441 603.767 225.098 609.313 222.411 613.82C219.725 618.327 215.868 621.75 210.841 624.09C205.815 626.43 199.705 627.6 192.511 627.6ZM191.601 580.67C194.375 580.67 196.628 580.063 198.361 578.85C200.095 577.637 201.351 576.077 202.131 574.17C202.998 572.263 203.475 570.227 203.561 568.06C203.648 567.107 203.691 565.763 203.691 564.03C203.691 562.297 203.648 560.997 203.561 560.13C203.475 557.877 202.998 555.797 202.131 553.89C201.351 551.983 200.095 550.467 198.361 549.34C196.628 548.127 194.375 547.52 191.601 547.52C188.741 547.52 186.445 548.127 184.711 549.34C183.065 550.553 181.851 552.2 181.071 554.28C180.378 556.36 179.945 558.657 179.771 561.17C179.685 563.077 179.685 565.027 179.771 567.02C179.945 569.533 180.378 571.83 181.071 573.91C181.851 575.99 183.065 577.637 184.711 578.85C186.445 580.063 188.741 580.67 191.601 580.67ZM272.954 600.3C262.727 600.3 254.581 597.527 248.514 591.98C242.447 586.433 239.284 578.2 239.024 567.28C239.024 566.673 239.024 565.893 239.024 564.94C239.024 563.987 239.024 563.25 239.024 562.73C239.284 555.883 240.801 550.033 243.574 545.18C246.434 540.24 250.334 536.513 255.274 534C260.301 531.4 266.151 530.1 272.824 530.1C280.451 530.1 286.734 531.617 291.674 534.65C296.701 537.683 300.471 541.8 302.984 547C305.497 552.2 306.754 558.137 306.754 564.81V567.93C306.754 568.883 306.407 569.663 305.714 570.27C305.107 570.877 304.371 571.18 303.504 571.18H261.904C261.904 571.267 261.904 571.397 261.904 571.57C261.904 571.743 261.904 571.917 261.904 572.09C261.991 574.603 262.424 576.9 263.204 578.98C263.984 581.06 265.197 582.707 266.844 583.92C268.491 585.133 270.484 585.74 272.824 585.74C274.557 585.74 275.987 585.48 277.114 584.96C278.327 584.353 279.324 583.703 280.104 583.01C280.884 582.23 281.491 581.58 281.924 581.06C282.704 580.193 283.311 579.673 283.744 579.5C284.264 579.24 285.044 579.11 286.084 579.11H302.204C303.071 579.11 303.764 579.37 304.284 579.89C304.891 580.323 305.151 580.973 305.064 581.84C304.977 583.313 304.241 585.09 302.854 587.17C301.467 589.25 299.431 591.33 296.744 593.41C294.144 595.403 290.851 597.05 286.864 598.35C282.877 599.65 278.241 600.3 272.954 600.3ZM261.904 558.31H283.874V558.05C283.874 555.277 283.441 552.85 282.574 550.77C281.794 548.69 280.537 547.087 278.804 545.96C277.157 544.833 275.164 544.27 272.824 544.27C270.484 544.27 268.491 544.833 266.844 545.96C265.284 547.087 264.071 548.69 263.204 550.77C262.337 552.85 261.904 555.277 261.904 558.05V558.31ZM321.541 599C320.588 599 319.808 598.697 319.201 598.09C318.595 597.483 318.291 596.703 318.291 595.75V579.24C318.291 578.373 318.595 577.637 319.201 577.03C319.808 576.337 320.588 575.99 321.541 575.99H337.921C338.875 575.99 339.655 576.337 340.261 577.03C340.955 577.637 341.301 578.373 341.301 579.24V595.75C341.301 596.703 340.955 597.483 340.261 598.09C339.655 598.697 338.875 599 337.921 599H321.541ZM380.597 600.3C376.437 600.3 372.667 599.65 369.287 598.35C365.994 596.963 363.134 594.97 360.707 592.37C358.367 589.683 356.547 586.477 355.247 582.75C353.947 578.937 353.21 574.603 353.037 569.75C352.95 568.017 352.907 566.5 352.907 565.2C352.907 563.813 352.95 562.297 353.037 560.65C353.21 555.97 353.947 551.767 355.247 548.04C356.547 544.313 358.367 541.107 360.707 538.42C363.047 535.733 365.907 533.697 369.287 532.31C372.667 530.837 376.437 530.1 380.597 530.1C384.93 530.1 388.657 530.837 391.777 532.31C394.897 533.697 397.54 535.517 399.707 537.77V509.95C399.707 508.997 400.01 508.217 400.617 507.61C401.224 507.003 402.004 506.7 402.957 506.7H418.817C419.684 506.7 420.42 507.003 421.027 507.61C421.72 508.217 422.067 508.997 422.067 509.95V595.75C422.067 596.703 421.72 597.483 421.027 598.09C420.42 598.697 419.684 599 418.817 599H404.127C403.174 599 402.394 598.697 401.787 598.09C401.18 597.483 400.877 596.703 400.877 595.75V591.59C398.797 594.103 396.11 596.183 392.817 597.83C389.524 599.477 385.45 600.3 380.597 600.3ZM387.617 582.88C390.564 582.88 392.86 582.273 394.507 581.06C396.24 579.76 397.497 578.113 398.277 576.12C399.144 574.127 399.62 571.96 399.707 569.62C399.794 567.887 399.837 566.24 399.837 564.68C399.837 563.12 399.794 561.517 399.707 559.87C399.62 557.703 399.144 555.71 398.277 553.89C397.41 551.983 396.11 550.467 394.377 549.34C392.644 548.127 390.39 547.52 387.617 547.52C384.757 547.52 382.46 548.127 380.727 549.34C379.08 550.553 377.91 552.2 377.217 554.28C376.524 556.36 376.09 558.657 375.917 561.17C375.657 563.857 375.657 566.543 375.917 569.23C376.09 571.743 376.524 574.04 377.217 576.12C377.91 578.2 379.08 579.847 380.727 581.06C382.46 582.273 384.757 582.88 387.617 582.88ZM440.639 599C439.685 599 438.905 598.697 438.299 598.09C437.692 597.483 437.389 596.703 437.389 595.75V534.65C437.389 533.697 437.692 532.917 438.299 532.31C438.905 531.703 439.685 531.4 440.639 531.4H455.979C456.845 531.4 457.582 531.703 458.189 532.31C458.882 532.917 459.229 533.697 459.229 534.65V595.75C459.229 596.703 458.882 597.483 458.189 598.09C457.582 598.697 456.845 599 455.979 599H440.639ZM440.509 521.65C439.555 521.65 438.775 521.347 438.169 520.74C437.562 520.133 437.259 519.353 437.259 518.4V506.83C437.259 505.877 437.562 505.097 438.169 504.49C438.775 503.797 439.555 503.45 440.509 503.45H455.979C456.932 503.45 457.712 503.797 458.319 504.49C459.012 505.097 459.359 505.877 459.359 506.83V518.4C459.359 519.353 459.012 520.133 458.319 520.74C457.712 521.347 456.932 521.65 455.979 521.65H440.509ZM507.609 627.6C500.936 627.6 495.389 626.733 490.969 625C486.636 623.267 483.169 621.187 480.569 618.76C478.056 616.333 476.236 613.907 475.109 611.48C473.982 609.14 473.376 607.277 473.289 605.89C473.202 604.937 473.506 604.157 474.199 603.55C474.892 602.943 475.716 602.64 476.669 602.64H493.179C493.959 602.64 494.609 602.813 495.129 603.16C495.736 603.593 496.212 604.287 496.559 605.24C496.992 606.193 497.556 607.19 498.249 608.23C499.029 609.27 500.069 610.093 501.369 610.7C502.756 611.393 504.619 611.74 506.959 611.74C509.559 611.74 511.726 611.307 513.459 610.44C515.192 609.66 516.492 608.317 517.359 606.41C518.226 604.59 518.659 602.12 518.659 599V590.29C516.666 592.457 514.109 594.233 510.989 595.62C507.869 596.92 504.099 597.57 499.679 597.57C495.259 597.57 491.359 596.92 487.979 595.62C484.599 594.32 481.782 592.37 479.529 589.77C477.276 587.17 475.499 584.007 474.199 580.28C472.986 576.553 472.249 572.263 471.989 567.41C471.902 565.157 471.902 562.903 471.989 560.65C472.249 555.97 472.986 551.767 474.199 548.04C475.412 544.313 477.146 541.107 479.399 538.42C481.739 535.733 484.599 533.697 487.979 532.31C491.359 530.837 495.259 530.1 499.679 530.1C504.359 530.1 508.346 531.01 511.639 532.83C515.019 534.563 517.792 536.773 519.959 539.46V534.65C519.959 533.783 520.262 533.047 520.869 532.44C521.476 531.747 522.256 531.4 523.209 531.4H538.159C539.112 531.4 539.892 531.747 540.499 532.44C541.192 533.047 541.539 533.783 541.539 534.65V597.18C541.539 603.767 540.196 609.313 537.509 613.82C534.822 618.327 530.966 621.75 525.939 624.09C520.912 626.43 514.802 627.6 507.609 627.6ZM506.699 580.67C509.472 580.67 511.726 580.063 513.459 578.85C515.192 577.637 516.449 576.077 517.229 574.17C518.096 572.263 518.572 570.227 518.659 568.06C518.746 567.107 518.789 565.763 518.789 564.03C518.789 562.297 518.746 560.997 518.659 560.13C518.572 557.877 518.096 555.797 517.229 553.89C516.449 551.983 515.192 550.467 513.459 549.34C511.726 548.127 509.472 547.52 506.699 547.52C503.839 547.52 501.542 548.127 499.809 549.34C498.162 550.553 496.949 552.2 496.169 554.28C495.476 556.36 495.042 558.657 494.869 561.17C494.782 563.077 494.782 565.027 494.869 567.02C495.042 569.533 495.476 571.83 496.169 573.91C496.949 575.99 498.162 577.637 499.809 578.85C501.542 580.063 503.839 580.67 506.699 580.67ZM560.102 599C559.148 599 558.368 598.697 557.762 598.09C557.155 597.483 556.852 596.703 556.852 595.75V534.65C556.852 533.697 557.155 532.917 557.762 532.31C558.368 531.703 559.148 531.4 560.102 531.4H575.442C576.308 531.4 577.045 531.703 577.652 532.31C578.345 532.917 578.692 533.697 578.692 534.65V595.75C578.692 596.703 578.345 597.483 577.652 598.09C577.045 598.697 576.308 599 575.442 599H560.102ZM559.972 521.65C559.018 521.65 558.238 521.347 557.632 520.74C557.025 520.133 556.722 519.353 556.722 518.4V506.83C556.722 505.877 557.025 505.097 557.632 504.49C558.238 503.797 559.018 503.45 559.972 503.45H575.442C576.395 503.45 577.175 503.797 577.782 504.49C578.475 505.097 578.822 505.877 578.822 506.83V518.4C578.822 519.353 578.475 520.133 577.782 520.74C577.175 521.347 576.395 521.65 575.442 521.65H559.972ZM628.502 599C622.955 599 618.145 598.133 614.072 596.4C610.085 594.58 607.009 591.807 604.842 588.08C602.675 584.267 601.592 579.37 601.592 573.39V548.43H591.452C590.499 548.43 589.675 548.127 588.982 547.52C588.375 546.913 588.072 546.133 588.072 545.18V534.65C588.072 533.697 588.375 532.917 588.982 532.31C589.675 531.703 590.499 531.4 591.452 531.4H601.592V509.95C601.592 508.997 601.895 508.217 602.502 507.61C603.195 507.003 603.975 506.7 604.842 506.7H619.922C620.875 506.7 621.655 507.003 622.262 507.61C622.869 508.217 623.172 508.997 623.172 509.95V531.4H639.422C640.375 531.4 641.155 531.703 641.762 532.31C642.369 532.917 642.672 533.697 642.672 534.65V545.18C642.672 546.133 642.369 546.913 641.762 547.52C641.155 548.127 640.375 548.43 639.422 548.43H623.172V571.57C623.172 574.517 623.735 576.857 624.862 578.59C625.989 580.323 627.895 581.19 630.582 581.19H640.592C641.545 581.19 642.325 581.493 642.932 582.1C643.539 582.707 643.842 583.487 643.842 584.44V595.75C643.842 596.703 643.539 597.483 642.932 598.09C642.325 598.697 641.545 599 640.592 599H628.502ZM674.886 600.3C670.206 600.3 666.002 599.433 662.276 597.7C658.636 595.88 655.732 593.453 653.566 590.42C651.399 587.387 650.316 583.963 650.316 580.15C650.316 573.997 652.829 569.143 657.856 565.59C662.882 561.95 669.556 559.48 677.876 558.18L694.126 555.71V553.89C694.126 550.77 693.476 548.387 692.176 546.74C690.876 545.093 688.492 544.27 685.026 544.27C682.599 544.27 680.606 544.747 679.046 545.7C677.572 546.653 676.402 547.953 675.536 549.6C674.756 550.727 673.672 551.29 672.286 551.29H657.726C656.772 551.29 656.036 551.03 655.516 550.51C654.996 549.903 654.779 549.21 654.866 548.43C654.866 546.87 655.429 545.093 656.556 543.1C657.769 541.02 659.589 538.983 662.016 536.99C664.442 534.997 667.562 533.35 671.376 532.05C675.189 530.75 679.782 530.1 685.156 530.1C690.789 530.1 695.599 530.75 699.586 532.05C703.572 533.35 706.779 535.17 709.206 537.51C711.719 539.85 713.582 542.623 714.796 545.83C716.009 548.95 716.616 552.417 716.616 556.23V595.75C716.616 596.703 716.269 597.483 715.576 598.09C714.969 598.697 714.232 599 713.366 599H698.286C697.332 599 696.552 598.697 695.946 598.09C695.339 597.483 695.036 596.703 695.036 595.75V591.2C693.909 592.847 692.392 594.363 690.486 595.75C688.579 597.137 686.326 598.22 683.726 599C681.212 599.867 678.266 600.3 674.886 600.3ZM680.996 585.48C683.509 585.48 685.762 584.96 687.756 583.92C689.836 582.793 691.439 581.103 692.566 578.85C693.779 576.51 694.386 573.607 694.386 570.14V568.32L683.336 570.27C679.262 570.963 676.272 572.047 674.366 573.52C672.546 574.907 671.636 576.553 671.636 578.46C671.636 579.933 672.069 581.19 672.936 582.23C673.802 583.27 674.929 584.093 676.316 584.7C677.702 585.22 679.262 585.48 680.996 585.48ZM734.535 599C733.582 599 732.802 598.697 732.195 598.09C731.589 597.483 731.285 596.703 731.285 595.75V509.95C731.285 508.997 731.589 508.217 732.195 507.61C732.802 507.003 733.582 506.7 734.535 506.7H749.875C750.829 506.7 751.609 507.003 752.215 507.61C752.822 508.217 753.125 508.997 753.125 509.95V595.75C753.125 596.703 752.822 597.483 752.215 598.09C751.609 598.697 750.829 599 749.875 599H734.535Z" fill="#7D42F4"/>
    <path d="M418.686 273.124C377.375 273.124 292.464 272.456 262.858 274.929C240.088 276.845 218.652 285.359 207.783 302.237V211.8C212.484 175.839 248.84 173.616 273.736 173.616C273.743 173.616 415.97 173.473 415.97 173.473C441.87 171.683 460.362 158.227 470.852 138.973C492.079 100.015 480.903 46.7628 438.679 18.4482C499.406 28.1348 545.986 81.1815 545.986 144.987C545.986 215.643 488.88 273.124 418.686 273.124ZM418.186 134.135C424.41 134.135 429.466 139.232 429.466 145.497C429.466 150.661 425.768 156.852 416.794 156.852C416.775 156.852 341.13 156.896 341.104 156.896L341.058 134.135H418.186ZM418.686 0.00545158C417.894 0.00545158 259.984 -0.0265562 259.203 0.0641105C221.542 1.35877 191.043 33.0108 191.043 71.0321C191.043 71.0748 191.043 71.1175 191.043 71.1588C191.043 334.538 190.782 336.695 191.547 338.807C193.052 376.471 224.011 406.938 262.056 406.938C300.967 406.938 332.624 375.075 332.624 335.911C332.624 335.864 332.624 317.169 332.62 317.127V289.971H418.686C498.11 289.971 562.724 224.931 562.724 144.987C562.724 65.0468 498.11 0.00545158 418.686 0.00545158Z" fill="#7D42F4"/>
  </g>
  <defs>
    <clipPath id="clip0_103_2">
      <rect width="754" height="628" fill="white"/>
    </clipPath>
  </defs>
</svg>
