<svg width="2226" height="407" viewBox="0 0 2226 407" fill="none" xmlns="http://www.w3.org/2000/svg">
  <path d="M496.2 338C494 338 492.2 337.3 490.8 335.9C489.4 334.5 488.7 332.7 488.7 330.5V132.5C488.7 130.3 489.4 128.5 490.8 127.1C492.2 125.7 494 125 496.2 125H530.1C532.1 125 533.8 125.7 535.2 127.1C536.8 128.5 537.6 130.3 537.6 132.5V143.6C542.2 137.4 548.3 132.3 555.9 128.3C563.5 124.1 572.9 122 584.1 122C594.1 122 602.9 123.6 610.5 126.8C618.1 129.8 624.6 134.3 630 140.3C635.4 146.3 639.6 153.6 642.6 162.2C645.8 170.8 647.6 180.7 648 191.9C648.2 195.9 648.3 199.6 648.3 203C648.3 206.4 648.2 210.1 648 214.1C647.6 224.9 645.9 234.6 642.9 243.2C639.9 251.8 635.7 259.1 630.3 265.1C624.9 271.1 618.3 275.8 610.5 279.2C602.9 282.4 594.1 284 584.1 284C574.3 284 565.7 282.3 558.3 278.9C551.1 275.3 545.1 270.3 540.3 263.9V330.5C540.3 332.7 539.6 334.5 538.2 335.9C536.8 337.3 535 338 532.8 338H496.2ZM567.9 243.8C574.7 243.8 580 242.4 583.8 239.6C587.6 236.8 590.3 233 591.9 228.2C593.7 223.4 594.8 218.1 595.2 212.3C595.6 206.1 595.6 199.9 595.2 193.7C594.8 187.9 593.7 182.6 591.9 177.8C590.3 173 587.6 169.2 583.8 166.4C580 163.6 574.7 162.2 567.9 162.2C561.3 162.2 556 163.7 552 166.7C548 169.5 545.1 173.2 543.3 177.8C541.5 182.4 540.5 187.4 540.3 192.8C540.1 196.6 540 200.3 540 203.9C540 207.5 540.1 211.3 540.3 215.3C540.5 220.3 541.6 225 543.6 229.4C545.6 233.6 548.6 237.1 552.6 239.9C556.6 242.5 561.7 243.8 567.9 243.8ZM724.758 284C713.958 284 704.258 282 695.658 278C687.258 273.8 680.558 268.2 675.558 261.2C670.558 254.2 668.058 246.3 668.058 237.5C668.058 223.3 673.858 212.1 685.458 203.9C697.058 195.5 712.458 189.8 731.658 186.8L769.158 181.1V176.9C769.158 169.7 767.658 164.2 764.658 160.4C761.658 156.6 756.158 154.7 748.158 154.7C742.558 154.7 737.958 155.8 734.358 158C730.958 160.2 728.258 163.2 726.258 167C724.458 169.6 721.958 170.9 718.758 170.9H685.158C682.958 170.9 681.258 170.3 680.058 169.1C678.858 167.7 678.358 166.1 678.558 164.3C678.558 160.7 679.858 156.6 682.458 152C685.258 147.2 689.458 142.5 695.058 137.9C700.658 133.3 707.858 129.5 716.658 126.5C725.458 123.5 736.058 122 748.458 122C761.458 122 772.558 123.5 781.758 126.5C790.958 129.5 798.358 133.7 803.958 139.1C809.758 144.5 814.058 150.9 816.858 158.3C819.658 165.5 821.058 173.5 821.058 182.3V273.5C821.058 275.7 820.258 277.5 818.658 278.9C817.258 280.3 815.558 281 813.558 281H778.758C776.558 281 774.758 280.3 773.358 278.9C771.958 277.5 771.258 275.7 771.258 273.5V263C768.658 266.8 765.158 270.3 760.758 273.5C756.358 276.7 751.158 279.2 745.158 281C739.358 283 732.558 284 724.758 284ZM738.858 249.8C744.658 249.8 749.858 248.6 754.458 246.2C759.258 243.6 762.958 239.7 765.558 234.5C768.358 229.1 769.758 222.4 769.758 214.4V210.2L744.258 214.7C734.858 216.3 727.958 218.8 723.558 222.2C719.358 225.4 717.258 229.2 717.258 233.6C717.258 237 718.258 239.9 720.258 242.3C722.258 244.7 724.858 246.6 728.058 248C731.258 249.2 734.858 249.8 738.858 249.8ZM931.411 347C916.011 347 903.211 345 893.011 341C883.011 337 875.011 332.2 869.011 326.6C863.211 321 859.011 315.4 856.411 309.8C853.811 304.4 852.411 300.1 852.211 296.9C852.011 294.7 852.711 292.9 854.311 291.5C855.911 290.1 857.811 289.4 860.011 289.4H898.111C899.911 289.4 901.411 289.8 902.611 290.6C904.011 291.6 905.111 293.2 905.911 295.4C906.911 297.6 908.211 299.9 909.811 302.3C911.611 304.7 914.011 306.6 917.011 308C920.211 309.6 924.511 310.4 929.911 310.4C935.911 310.4 940.911 309.4 944.911 307.4C948.911 305.6 951.911 302.5 953.911 298.1C955.911 293.9 956.911 288.2 956.911 281V260.9C952.311 265.9 946.411 270 939.211 273.2C932.011 276.2 923.311 277.7 913.111 277.7C902.911 277.7 893.911 276.2 886.111 273.2C878.311 270.2 871.811 265.7 866.611 259.7C861.411 253.7 857.311 246.4 854.311 237.8C851.511 229.2 849.811 219.3 849.211 208.1C849.011 202.9 849.011 197.7 849.211 192.5C849.811 181.7 851.511 172 854.311 163.4C857.111 154.8 861.111 147.4 866.311 141.2C871.711 135 878.311 130.3 886.111 127.1C893.911 123.7 902.911 122 913.111 122C923.911 122 933.111 124.1 940.711 128.3C948.511 132.3 954.911 137.4 959.911 143.6V132.5C959.911 130.5 960.611 128.8 962.011 127.4C963.411 125.8 965.211 125 967.411 125H1001.91C1004.11 125 1005.91 125.8 1007.31 127.4C1008.91 128.8 1009.71 130.5 1009.71 132.5V276.8C1009.71 292 1006.61 304.8 1000.41 315.2C994.211 325.6 985.311 333.5 973.711 338.9C962.111 344.3 948.011 347 931.411 347ZM929.311 238.7C935.711 238.7 940.911 237.3 944.911 234.5C948.911 231.7 951.811 228.1 953.611 223.7C955.611 219.3 956.711 214.6 956.911 209.6C957.111 207.4 957.211 204.3 957.211 200.3C957.211 196.3 957.111 193.3 956.911 191.3C956.711 186.1 955.611 181.3 953.611 176.9C951.811 172.5 948.911 169 944.911 166.4C940.911 163.6 935.711 162.2 929.311 162.2C922.711 162.2 917.411 163.6 913.411 166.4C909.611 169.2 906.811 173 905.011 177.8C903.411 182.6 902.411 187.9 902.011 193.7C901.811 198.1 901.811 202.6 902.011 207.2C902.411 213 903.411 218.3 905.011 223.1C906.811 227.9 909.611 231.7 913.411 234.5C917.411 237.3 922.711 238.7 929.311 238.7ZM1117.05 284C1093.45 284 1074.65 277.6 1060.65 264.8C1046.65 252 1039.35 233 1038.75 207.8C1038.75 206.4 1038.75 204.6 1038.75 202.4C1038.75 200.2 1038.75 198.5 1038.75 197.3C1039.35 181.5 1042.85 168 1049.25 156.8C1055.85 145.4 1064.85 136.8 1076.25 131C1087.85 125 1101.35 122 1116.75 122C1134.35 122 1148.85 125.5 1160.25 132.5C1171.85 139.5 1180.55 149 1186.35 161C1192.15 173 1195.05 186.7 1195.05 202.1V209.3C1195.05 211.5 1194.25 213.3 1192.65 214.7C1191.25 216.1 1189.55 216.8 1187.55 216.8H1091.55C1091.55 217 1091.55 217.3 1091.55 217.7C1091.55 218.1 1091.55 218.5 1091.55 218.9C1091.75 224.7 1092.75 230 1094.55 234.8C1096.35 239.6 1099.15 243.4 1102.95 246.2C1106.75 249 1111.35 250.4 1116.75 250.4C1120.75 250.4 1124.05 249.8 1126.65 248.6C1129.45 247.2 1131.75 245.7 1133.55 244.1C1135.35 242.3 1136.75 240.8 1137.75 239.6C1139.55 237.6 1140.95 236.4 1141.95 236C1143.15 235.4 1144.95 235.1 1147.35 235.1H1184.55C1186.55 235.1 1188.15 235.7 1189.35 236.9C1190.75 237.9 1191.35 239.4 1191.15 241.4C1190.95 244.8 1189.25 248.9 1186.05 253.7C1182.85 258.5 1178.15 263.3 1171.95 268.1C1165.95 272.7 1158.35 276.5 1149.15 279.5C1139.95 282.5 1129.25 284 1117.05 284ZM1091.55 187.1H1142.25V186.5C1142.25 180.1 1141.25 174.5 1139.25 169.7C1137.45 164.9 1134.55 161.2 1130.55 158.6C1126.75 156 1122.15 154.7 1116.75 154.7C1111.35 154.7 1106.75 156 1102.95 158.6C1099.35 161.2 1096.55 164.9 1094.55 169.7C1092.55 174.5 1091.55 180.1 1091.55 186.5V187.1ZM1229.17 281C1226.97 281 1225.17 280.3 1223.77 278.9C1222.37 277.5 1221.67 275.7 1221.67 273.5V235.4C1221.67 233.4 1222.37 231.7 1223.77 230.3C1225.17 228.7 1226.97 227.9 1229.17 227.9H1266.97C1269.17 227.9 1270.97 228.7 1272.37 230.3C1273.97 231.7 1274.77 233.4 1274.77 235.4V273.5C1274.77 275.7 1273.97 277.5 1272.37 278.9C1270.97 280.3 1269.17 281 1266.97 281H1229.17ZM1365.45 284C1355.85 284 1347.15 282.5 1339.35 279.5C1331.75 276.3 1325.15 271.7 1319.55 265.7C1314.15 259.5 1309.95 252.1 1306.95 243.5C1303.95 234.7 1302.25 224.7 1301.85 213.5C1301.65 209.5 1301.55 206 1301.55 203C1301.55 199.8 1301.65 196.3 1301.85 192.5C1302.25 181.7 1303.95 172 1306.95 163.4C1309.95 154.8 1314.15 147.4 1319.55 141.2C1324.95 135 1331.55 130.3 1339.35 127.1C1347.15 123.7 1355.85 122 1365.45 122C1375.45 122 1384.05 123.7 1391.25 127.1C1398.45 130.3 1404.55 134.5 1409.55 139.7V75.5C1409.55 73.3 1410.25 71.5 1411.65 70.1C1413.05 68.7 1414.85 68 1417.05 68H1453.65C1455.65 68 1457.35 68.7 1458.75 70.1C1460.35 71.5 1461.15 73.3 1461.15 75.5V273.5C1461.15 275.7 1460.35 277.5 1458.75 278.9C1457.35 280.3 1455.65 281 1453.65 281H1419.75C1417.55 281 1415.75 280.3 1414.35 278.9C1412.95 277.5 1412.25 275.7 1412.25 273.5V263.9C1407.45 269.7 1401.25 274.5 1393.65 278.3C1386.05 282.1 1376.65 284 1365.45 284ZM1381.65 243.8C1388.45 243.8 1393.75 242.4 1397.55 239.6C1401.55 236.6 1404.45 232.8 1406.25 228.2C1408.25 223.6 1409.35 218.6 1409.55 213.2C1409.75 209.2 1409.85 205.4 1409.85 201.8C1409.85 198.2 1409.75 194.5 1409.55 190.7C1409.35 185.7 1408.25 181.1 1406.25 176.9C1404.25 172.5 1401.25 169 1397.25 166.4C1393.25 163.6 1388.05 162.2 1381.65 162.2C1375.05 162.2 1369.75 163.6 1365.75 166.4C1361.95 169.2 1359.25 173 1357.65 177.8C1356.05 182.6 1355.05 187.9 1354.65 193.7C1354.05 199.9 1354.05 206.1 1354.65 212.3C1355.05 218.1 1356.05 223.4 1357.65 228.2C1359.25 233 1361.95 236.8 1365.75 239.6C1369.75 242.4 1375.05 243.8 1381.65 243.8ZM1504.01 281C1501.81 281 1500.01 280.3 1498.61 278.9C1497.21 277.5 1496.51 275.7 1496.51 273.5V132.5C1496.51 130.3 1497.21 128.5 1498.61 127.1C1500.01 125.7 1501.81 125 1504.01 125H1539.41C1541.41 125 1543.11 125.7 1544.51 127.1C1546.11 128.5 1546.91 130.3 1546.91 132.5V273.5C1546.91 275.7 1546.11 277.5 1544.51 278.9C1543.11 280.3 1541.41 281 1539.41 281H1504.01ZM1503.71 102.5C1501.51 102.5 1499.71 101.8 1498.31 100.4C1496.91 99 1496.21 97.2 1496.21 95V68.3C1496.21 66.1 1496.91 64.3 1498.31 62.9C1499.71 61.3 1501.51 60.5 1503.71 60.5H1539.41C1541.61 60.5 1543.41 61.3 1544.81 62.9C1546.41 64.3 1547.21 66.1 1547.21 68.3V95C1547.21 97.2 1546.41 99 1544.81 100.4C1543.41 101.8 1541.61 102.5 1539.41 102.5H1503.71ZM1658.56 347C1643.16 347 1630.36 345 1620.16 341C1610.16 337 1602.16 332.2 1596.16 326.6C1590.36 321 1586.16 315.4 1583.56 309.8C1580.96 304.4 1579.56 300.1 1579.36 296.9C1579.16 294.7 1579.86 292.9 1581.46 291.5C1583.06 290.1 1584.96 289.4 1587.16 289.4H1625.26C1627.06 289.4 1628.56 289.8 1629.76 290.6C1631.16 291.6 1632.26 293.2 1633.06 295.4C1634.06 297.6 1635.36 299.9 1636.96 302.3C1638.76 304.7 1641.16 306.6 1644.16 308C1647.36 309.6 1651.66 310.4 1657.06 310.4C1663.06 310.4 1668.06 309.4 1672.06 307.4C1676.06 305.6 1679.06 302.5 1681.06 298.1C1683.06 293.9 1684.06 288.2 1684.06 281V260.9C1679.46 265.9 1673.56 270 1666.36 273.2C1659.16 276.2 1650.46 277.7 1640.26 277.7C1630.06 277.7 1621.06 276.2 1613.26 273.2C1605.46 270.2 1598.96 265.7 1593.76 259.7C1588.56 253.7 1584.46 246.4 1581.46 237.8C1578.66 229.2 1576.96 219.3 1576.36 208.1C1576.16 202.9 1576.16 197.7 1576.36 192.5C1576.96 181.7 1578.66 172 1581.46 163.4C1584.26 154.8 1588.26 147.4 1593.46 141.2C1598.86 135 1605.46 130.3 1613.26 127.1C1621.06 123.7 1630.06 122 1640.26 122C1651.06 122 1660.26 124.1 1667.86 128.3C1675.66 132.3 1682.06 137.4 1687.06 143.6V132.5C1687.06 130.5 1687.76 128.8 1689.16 127.4C1690.56 125.8 1692.36 125 1694.56 125H1729.06C1731.26 125 1733.06 125.8 1734.46 127.4C1736.06 128.8 1736.86 130.5 1736.86 132.5V276.8C1736.86 292 1733.76 304.8 1727.56 315.2C1721.36 325.6 1712.46 333.5 1700.86 338.9C1689.26 344.3 1675.16 347 1658.56 347ZM1656.46 238.7C1662.86 238.7 1668.06 237.3 1672.06 234.5C1676.06 231.7 1678.96 228.1 1680.76 223.7C1682.76 219.3 1683.86 214.6 1684.06 209.6C1684.26 207.4 1684.36 204.3 1684.36 200.3C1684.36 196.3 1684.26 193.3 1684.06 191.3C1683.86 186.1 1682.76 181.3 1680.76 176.9C1678.96 172.5 1676.06 169 1672.06 166.4C1668.06 163.6 1662.86 162.2 1656.46 162.2C1649.86 162.2 1644.56 163.6 1640.56 166.4C1636.76 169.2 1633.96 173 1632.16 177.8C1630.56 182.6 1629.56 187.9 1629.16 193.7C1628.96 198.1 1628.96 202.6 1629.16 207.2C1629.56 213 1630.56 218.3 1632.16 223.1C1633.96 227.9 1636.76 231.7 1640.56 234.5C1644.56 237.3 1649.86 238.7 1656.46 238.7ZM1779.7 281C1777.5 281 1775.7 280.3 1774.3 278.9C1772.9 277.5 1772.2 275.7 1772.2 273.5V132.5C1772.2 130.3 1772.9 128.5 1774.3 127.1C1775.7 125.7 1777.5 125 1779.7 125H1815.1C1817.1 125 1818.8 125.7 1820.2 127.1C1821.8 128.5 1822.6 130.3 1822.6 132.5V273.5C1822.6 275.7 1821.8 277.5 1820.2 278.9C1818.8 280.3 1817.1 281 1815.1 281H1779.7ZM1779.4 102.5C1777.2 102.5 1775.4 101.8 1774 100.4C1772.6 99 1771.9 97.2 1771.9 95V68.3C1771.9 66.1 1772.6 64.3 1774 62.9C1775.4 61.3 1777.2 60.5 1779.4 60.5H1815.1C1817.3 60.5 1819.1 61.3 1820.5 62.9C1822.1 64.3 1822.9 66.1 1822.9 68.3V95C1822.9 97.2 1822.1 99 1820.5 100.4C1819.1 101.8 1817.3 102.5 1815.1 102.5H1779.4ZM1937.54 281C1924.74 281 1913.64 279 1904.24 275C1895.04 270.8 1887.94 264.4 1882.94 255.8C1877.94 247 1875.44 235.7 1875.44 221.9V164.3H1852.04C1849.84 164.3 1847.94 163.6 1846.34 162.2C1844.94 160.8 1844.24 159 1844.24 156.8V132.5C1844.24 130.3 1844.94 128.5 1846.34 127.1C1847.94 125.7 1849.84 125 1852.04 125H1875.44V75.5C1875.44 73.3 1876.14 71.5 1877.54 70.1C1879.14 68.7 1880.94 68 1882.94 68H1917.74C1919.94 68 1921.74 68.7 1923.14 70.1C1924.54 71.5 1925.24 73.3 1925.24 75.5V125H1962.74C1964.94 125 1966.74 125.7 1968.14 127.1C1969.54 128.5 1970.24 130.3 1970.24 132.5V156.8C1970.24 159 1969.54 160.8 1968.14 162.2C1966.74 163.6 1964.94 164.3 1962.74 164.3H1925.24V217.7C1925.24 224.5 1926.54 229.9 1929.14 233.9C1931.74 237.9 1936.14 239.9 1942.34 239.9H1965.44C1967.64 239.9 1969.44 240.6 1970.84 242C1972.24 243.4 1972.94 245.2 1972.94 247.4V273.5C1972.94 275.7 1972.24 277.5 1970.84 278.9C1969.44 280.3 1967.64 281 1965.44 281H1937.54ZM2044.58 284C2033.78 284 2024.08 282 2015.48 278C2007.08 273.8 2000.38 268.2 1995.38 261.2C1990.38 254.2 1987.88 246.3 1987.88 237.5C1987.88 223.3 1993.68 212.1 2005.28 203.9C2016.88 195.5 2032.28 189.8 2051.48 186.8L2088.98 181.1V176.9C2088.98 169.7 2087.48 164.2 2084.48 160.4C2081.48 156.6 2075.98 154.7 2067.98 154.7C2062.38 154.7 2057.78 155.8 2054.18 158C2050.78 160.2 2048.08 163.2 2046.08 167C2044.28 169.6 2041.78 170.9 2038.58 170.9H2004.98C2002.78 170.9 2001.08 170.3 1999.88 169.1C1998.68 167.7 1998.18 166.1 1998.38 164.3C1998.38 160.7 1999.68 156.6 2002.28 152C2005.08 147.2 2009.28 142.5 2014.88 137.9C2020.48 133.3 2027.68 129.5 2036.48 126.5C2045.28 123.5 2055.88 122 2068.28 122C2081.28 122 2092.38 123.5 2101.58 126.5C2110.78 129.5 2118.18 133.7 2123.78 139.1C2129.58 144.5 2133.88 150.9 2136.68 158.3C2139.48 165.5 2140.88 173.5 2140.88 182.3V273.5C2140.88 275.7 2140.08 277.5 2138.48 278.9C2137.08 280.3 2135.38 281 2133.38 281H2098.58C2096.38 281 2094.58 280.3 2093.18 278.9C2091.78 277.5 2091.08 275.7 2091.08 273.5V263C2088.48 266.8 2084.98 270.3 2080.58 273.5C2076.18 276.7 2070.98 279.2 2064.98 281C2059.18 283 2052.38 284 2044.58 284ZM2058.68 249.8C2064.48 249.8 2069.68 248.6 2074.28 246.2C2079.08 243.6 2082.78 239.7 2085.38 234.5C2088.18 229.1 2089.58 222.4 2089.58 214.4V210.2L2064.08 214.7C2054.68 216.3 2047.78 218.8 2043.38 222.2C2039.18 225.4 2037.08 229.2 2037.08 233.6C2037.08 237 2038.08 239.9 2040.08 242.3C2042.08 244.7 2044.68 246.6 2047.88 248C2051.08 249.2 2054.68 249.8 2058.68 249.8ZM2182.24 281C2180.04 281 2178.24 280.3 2176.84 278.9C2175.44 277.5 2174.74 275.7 2174.74 273.5V75.5C2174.74 73.3 2175.44 71.5 2176.84 70.1C2178.24 68.7 2180.04 68 2182.24 68H2217.64C2219.84 68 2221.64 68.7 2223.04 70.1C2224.44 71.5 2225.14 73.3 2225.14 75.5V273.5C2225.14 275.7 2224.44 277.5 2223.04 278.9C2221.64 280.3 2219.84 281 2217.64 281H2182.24Z" fill="white"/>
  <path d="M227.686 273.124C186.375 273.124 101.464 272.456 71.8577 274.929C49.0884 276.845 27.6524 285.359 16.783 302.237V211.8C21.4844 175.839 57.8404 173.616 82.7364 173.616C82.743 173.616 224.97 173.473 224.97 173.473C250.87 171.683 269.362 158.227 279.852 138.973C301.079 100.015 289.903 46.7628 247.679 18.4482C308.406 28.1348 354.986 81.1815 354.986 144.987C354.986 215.643 297.88 273.124 227.686 273.124ZM227.186 134.135C233.41 134.135 238.466 139.232 238.466 145.497C238.466 150.661 234.768 156.852 225.794 156.852C225.775 156.852 150.13 156.896 150.104 156.896L150.058 134.135H227.186ZM227.686 0.00546265C226.894 0.00546265 68.9844 -0.0265503 68.203 0.0641174C30.5417 1.35876 0.0430327 33.0108 0.0430327 71.0321C0.0430327 71.0748 0.0430327 71.1175 0.0430327 71.1588C0.0430327 334.538 -0.218297 336.695 0.547037 338.807C2.05237 376.471 33.011 406.938 71.0564 406.938C109.967 406.938 141.624 375.075 141.624 335.911C141.624 335.864 141.624 317.169 141.62 317.127V289.971H227.686C307.11 289.971 371.724 224.931 371.724 144.987C371.724 65.0468 307.11 0.00546265 227.686 0.00546265Z" fill="white"/>
</svg>
