<svg width="372" height="407" viewBox="0 0 372 407" fill="none" xmlns="http://www.w3.org/2000/svg">
  <path d="M227.686 273.124C186.375 273.124 101.464 272.456 71.8577 274.929C49.0884 276.845 27.6524 285.359 16.783 302.237V211.8C21.4844 175.839 57.8404 173.616 82.7364 173.616C82.743 173.616 224.97 173.473 224.97 173.473C250.87 171.683 269.362 158.227 279.852 138.973C301.079 100.015 289.903 46.7628 247.679 18.4482C308.406 28.1348 354.986 81.1815 354.986 144.987C354.986 215.643 297.88 273.124 227.686 273.124ZM227.186 134.135C233.41 134.135 238.466 139.232 238.466 145.497C238.466 150.661 234.768 156.852 225.794 156.852C225.775 156.852 150.13 156.896 150.104 156.896L150.058 134.135H227.186ZM227.686 0.00544753C226.894 0.00544753 68.9844 -0.0265603 68.203 0.0641064C30.5417 1.35877 0.0430327 33.0108 0.0430327 71.0321C0.0430327 71.0748 0.0430327 71.1175 0.0430327 71.1588C0.0430327 334.538 -0.218297 336.695 0.547037 338.807C2.05237 376.471 33.011 406.938 71.0564 406.938C109.967 406.938 141.624 375.075 141.624 335.911C141.624 335.864 141.624 317.169 141.62 317.127V289.971H227.686C307.11 289.971 371.724 224.931 371.724 144.987C371.724 65.0468 307.11 0.00544753 227.686 0.00544753" fill="white"/>
</svg>
