<svg width="940" height="203" viewBox="0 0 940 203" fill="none" xmlns="http://www.w3.org/2000/svg">
  <path d="M59.2084 143.792C47.9919 143.792 37.2349 139.336 29.3036 131.405C21.3724 123.474 16.9167 112.716 16.9167 101.5C16.9167 90.2836 21.3724 79.5265 29.3036 71.5953C37.2349 63.6641 47.9919 59.2084 59.2084 59.2084H84.5834C95.7998 59.2084 106.557 63.6641 114.488 71.5953C122.419 79.5265 126.875 90.2836 126.875 101.5C126.875 103.743 125.984 105.895 124.398 107.481C122.811 109.067 120.66 109.958 118.417 109.958C116.173 109.958 114.022 109.067 112.436 107.481C110.85 105.895 109.958 103.743 109.958 101.5C109.958 94.7702 107.285 88.3159 102.526 83.5572C97.7675 78.7985 91.3132 76.125 84.5834 76.125H59.2084C52.4785 76.125 46.0243 78.7985 41.2655 83.5572C36.5068 88.3159 33.8334 94.7702 33.8334 101.5C33.8334 108.23 36.5068 114.684 41.2655 119.443C46.0243 124.202 52.4785 126.875 59.2084 126.875C61.4516 126.875 63.6031 127.766 65.1893 129.352C66.7755 130.939 67.6667 133.09 67.6667 135.333C67.6667 137.577 66.7755 139.728 65.1893 141.314C63.6031 142.901 61.4516 143.792 59.2084 143.792Z" fill="white"/>
  <path d="M143.792 143.792H118.417C107.2 143.792 96.4432 139.336 88.5119 131.405C80.5807 123.474 76.125 112.716 76.125 101.5C76.125 99.2568 77.0161 97.1053 78.6024 95.5191C80.1886 93.9329 82.34 93.0417 84.5833 93.0417C86.8266 93.0417 88.978 93.9329 90.5643 95.5191C92.1505 97.1053 93.0417 99.2568 93.0417 101.5C93.0417 108.23 95.7151 114.684 100.474 119.443C105.233 124.202 111.687 126.875 118.417 126.875H143.792C150.522 126.875 156.976 124.202 161.735 119.443C166.493 114.684 169.167 108.23 169.167 101.5C169.167 94.7702 166.493 88.3159 161.735 83.5572C156.976 78.7985 150.522 76.125 143.792 76.125C141.548 76.125 139.397 75.2339 137.811 73.6477C136.224 72.0614 135.333 69.91 135.333 67.6667C135.333 65.4234 136.224 63.272 137.811 61.6858C139.397 60.0995 141.548 59.2084 143.792 59.2084C155.008 59.2084 165.765 63.6641 173.696 71.5953C181.628 79.5265 186.083 90.2836 186.083 101.5C186.083 112.716 181.628 123.474 173.696 131.405C165.765 139.336 155.008 143.792 143.792 143.792Z" fill="white"/>
  <path d="M292.243 112.056H268.693V97.2021H292.243C295.882 97.2021 298.845 96.6097 301.13 95.4248C303.415 94.1976 305.087 92.5049 306.145 90.3467C307.202 88.1885 307.731 85.7552 307.731 83.0469C307.731 80.2962 307.202 77.736 306.145 75.3662C305.087 72.9964 303.415 71.0921 301.13 69.6533C298.845 68.2145 295.882 67.4951 292.243 67.4951H275.295V145H256.252V52.5781H292.243C299.479 52.5781 305.679 53.89 310.842 56.5137C316.047 59.0951 320.025 62.6709 322.775 67.2412C325.526 71.8115 326.901 77.0378 326.901 82.9199C326.901 88.8867 325.526 94.0495 322.775 98.4082C320.025 102.767 316.047 106.131 310.842 108.501C305.679 110.871 299.479 112.056 292.243 112.056ZM375.207 129.512V98.916C375.207 96.7155 374.847 94.8324 374.128 93.2666C373.409 91.6585 372.287 90.4102 370.764 89.5215C369.283 88.6328 367.357 88.1885 364.987 88.1885C362.956 88.1885 361.2 88.5482 359.719 89.2676C358.238 89.9447 357.095 90.9391 356.291 92.251C355.487 93.5205 355.085 95.0228 355.085 96.7578H336.804C336.804 93.8379 337.481 91.0661 338.835 88.4424C340.189 85.8187 342.157 83.5124 344.738 81.5234C347.32 79.4922 350.388 77.9053 353.942 76.7627C357.539 75.6201 361.56 75.0488 366.003 75.0488C371.335 75.0488 376.075 75.9375 380.222 77.7148C384.369 79.4922 387.627 82.1582 389.997 85.7129C392.409 89.2676 393.615 93.7109 393.615 99.043V128.433C393.615 132.199 393.848 135.288 394.313 137.7C394.779 140.07 395.456 142.144 396.345 143.921V145H377.873C376.984 143.138 376.307 140.811 375.842 138.018C375.419 135.182 375.207 132.347 375.207 129.512ZM377.619 103.169L377.746 113.516H367.526C365.114 113.516 363.02 113.791 361.242 114.341C359.465 114.891 358.005 115.674 356.862 116.689C355.72 117.663 354.873 118.805 354.323 120.117C353.815 121.429 353.562 122.868 353.562 124.434C353.562 125.999 353.921 127.417 354.641 128.687C355.36 129.914 356.397 130.887 357.751 131.606C359.105 132.284 360.692 132.622 362.512 132.622C365.262 132.622 367.653 132.072 369.685 130.972C371.716 129.871 373.282 128.517 374.382 126.909C375.524 125.301 376.117 123.778 376.159 122.339L380.983 130.083C380.306 131.818 379.375 133.617 378.19 135.479C377.048 137.34 375.588 139.097 373.811 140.747C372.033 142.355 369.896 143.688 367.399 144.746C364.903 145.762 361.94 146.27 358.513 146.27C354.154 146.27 350.197 145.402 346.643 143.667C343.13 141.89 340.337 139.456 338.264 136.367C336.232 133.236 335.217 129.681 335.217 125.703C335.217 122.106 335.894 118.911 337.248 116.118C338.602 113.325 340.591 110.977 343.215 109.072C345.881 107.126 349.203 105.666 353.181 104.692C357.159 103.677 361.771 103.169 367.019 103.169H377.619ZM451.188 76.3184H467.756V142.715C467.756 148.978 466.359 154.289 463.566 158.647C460.816 163.049 456.965 166.37 452.014 168.613C447.062 170.898 441.307 172.041 434.748 172.041C431.87 172.041 428.824 171.66 425.607 170.898C422.434 170.137 419.387 168.952 416.467 167.344C413.589 165.736 411.177 163.704 409.23 161.25L417.292 150.459C419.408 152.913 421.862 154.818 424.655 156.172C427.448 157.568 430.537 158.267 433.923 158.267C437.224 158.267 440.017 157.653 442.302 156.426C444.587 155.241 446.343 153.485 447.57 151.157C448.798 148.872 449.411 146.1 449.411 142.842V92.1875L451.188 76.3184ZM404.978 111.484V110.151C404.978 104.904 405.612 100.143 406.882 95.8691C408.194 91.5527 410.035 87.8499 412.404 84.7607C414.816 81.6715 417.736 79.2806 421.164 77.5879C424.592 75.8952 428.464 75.0488 432.78 75.0488C437.351 75.0488 441.18 75.8952 444.27 77.5879C447.359 79.2806 449.898 81.6927 451.887 84.8242C453.876 87.9134 455.42 91.5739 456.521 95.8057C457.663 99.9951 458.552 104.587 459.187 109.58V112.5C458.552 117.282 457.6 121.725 456.33 125.83C455.061 129.935 453.389 133.532 451.315 136.621C449.242 139.668 446.66 142.038 443.571 143.73C440.524 145.423 436.885 146.27 432.653 146.27C428.422 146.27 424.592 145.402 421.164 143.667C417.779 141.932 414.88 139.499 412.468 136.367C410.056 133.236 408.194 129.554 406.882 125.322C405.612 121.09 404.978 116.478 404.978 111.484ZM423.259 110.151V111.484C423.259 114.32 423.534 116.965 424.084 119.419C424.634 121.873 425.48 124.053 426.623 125.957C427.808 127.819 429.268 129.279 431.003 130.337C432.78 131.353 434.875 131.86 437.287 131.86C440.63 131.86 443.36 131.162 445.476 129.766C447.591 128.327 449.178 126.359 450.236 123.862C451.294 121.366 451.908 118.488 452.077 115.229V106.914C451.993 104.248 451.633 101.857 450.998 99.7412C450.363 97.583 449.475 95.7422 448.332 94.2188C447.189 92.6953 445.708 91.5104 443.889 90.6641C442.069 89.8177 439.911 89.3945 437.414 89.3945C435.002 89.3945 432.907 89.9447 431.13 91.0449C429.395 92.1029 427.935 93.5628 426.75 95.4248C425.607 97.2868 424.74 99.4873 424.147 102.026C423.555 104.523 423.259 107.231 423.259 110.151ZM513.586 146.27C508.254 146.27 503.472 145.423 499.24 143.73C495.008 141.995 491.411 139.604 488.449 136.558C485.529 133.511 483.286 129.977 481.721 125.957C480.155 121.895 479.372 117.578 479.372 113.008V110.469C479.372 105.264 480.113 100.503 481.594 96.1865C483.075 91.8701 485.191 88.125 487.941 84.9512C490.734 81.7773 494.12 79.3441 498.098 77.6514C502.076 75.9163 506.561 75.0488 511.555 75.0488C516.421 75.0488 520.738 75.8529 524.504 77.4609C528.27 79.069 531.423 81.3542 533.962 84.3164C536.543 87.2786 538.49 90.8333 539.802 94.9805C541.114 99.0853 541.77 103.656 541.77 108.691V116.309H487.18V104.121H523.806V102.725C523.806 100.186 523.34 97.9215 522.409 95.9326C521.521 93.9014 520.166 92.2933 518.347 91.1084C516.527 89.9235 514.2 89.3311 511.364 89.3311C508.952 89.3311 506.879 89.86 505.144 90.918C503.409 91.9759 501.991 93.457 500.891 95.3613C499.833 97.2656 499.029 99.5085 498.479 102.09C497.971 104.629 497.717 107.422 497.717 110.469V113.008C497.717 115.758 498.098 118.298 498.859 120.625C499.663 122.952 500.785 124.963 502.224 126.655C503.705 128.348 505.482 129.66 507.556 130.591C509.672 131.522 512.062 131.987 514.729 131.987C518.029 131.987 521.097 131.353 523.933 130.083C526.81 128.771 529.286 126.803 531.359 124.18L540.246 133.828C538.807 135.902 536.84 137.891 534.343 139.795C531.888 141.699 528.926 143.265 525.456 144.492C521.986 145.677 518.029 146.27 513.586 146.27ZM553.068 136.177C553.068 133.468 553.999 131.204 555.861 129.385C557.766 127.565 560.284 126.655 563.415 126.655C566.547 126.655 569.043 127.565 570.905 129.385C572.81 131.204 573.762 133.468 573.762 136.177C573.762 138.885 572.81 141.149 570.905 142.969C569.043 144.788 566.547 145.698 563.415 145.698C560.284 145.698 557.766 144.788 555.861 142.969C553.999 141.149 553.068 138.885 553.068 136.177ZM630.446 130.02V47.5H648.854V145H632.287L630.446 130.02ZM587.028 111.484V110.151C587.028 104.904 587.621 100.143 588.806 95.8691C589.991 91.5527 591.726 87.8499 594.011 84.7607C596.296 81.6715 599.11 79.2806 602.453 77.5879C605.796 75.8952 609.605 75.0488 613.879 75.0488C617.899 75.0488 621.411 75.8952 624.416 77.5879C627.463 79.2806 630.044 81.6927 632.16 84.8242C634.318 87.9134 636.053 91.5739 637.365 95.8057C638.677 99.9951 639.629 104.587 640.222 109.58V112.5C639.629 117.282 638.677 121.725 637.365 125.83C636.053 129.935 634.318 133.532 632.16 136.621C630.044 139.668 627.463 142.038 624.416 143.73C621.369 145.423 617.814 146.27 613.752 146.27C609.478 146.27 605.669 145.402 602.326 143.667C599.025 141.932 596.232 139.499 593.947 136.367C591.704 133.236 589.991 129.554 588.806 125.322C587.621 121.09 587.028 116.478 587.028 111.484ZM605.31 110.151V111.484C605.31 114.32 605.521 116.965 605.944 119.419C606.41 121.873 607.15 124.053 608.166 125.957C609.224 127.819 610.578 129.279 612.229 130.337C613.921 131.353 615.974 131.86 618.386 131.86C621.517 131.86 624.099 131.162 626.13 129.766C628.161 128.327 629.706 126.359 630.764 123.862C631.864 121.366 632.499 118.488 632.668 115.229V106.914C632.541 104.248 632.16 101.857 631.525 99.7412C630.933 97.583 630.044 95.7422 628.859 94.2188C627.717 92.6953 626.278 91.5104 624.543 90.6641C622.85 89.8177 620.84 89.3945 618.513 89.3945C616.143 89.3945 614.112 89.9447 612.419 91.0449C610.726 92.1029 609.351 93.5628 608.293 95.4248C607.277 97.2868 606.516 99.4873 606.008 102.026C605.542 104.523 605.31 107.231 605.31 110.151ZM682.434 76.3184V145H664.089V76.3184H682.434ZM662.946 58.418C662.946 55.752 663.877 53.5514 665.739 51.8164C667.601 50.0814 670.098 49.2139 673.229 49.2139C676.319 49.2139 678.794 50.0814 680.656 51.8164C682.561 53.5514 683.513 55.752 683.513 58.418C683.513 61.084 682.561 63.2845 680.656 65.0195C678.794 66.7546 676.319 67.6221 673.229 67.6221C670.098 67.6221 667.601 66.7546 665.739 65.0195C663.877 63.2845 662.946 61.084 662.946 58.418ZM741.022 76.3184H757.59V142.715C757.59 148.978 756.193 154.289 753.4 158.647C750.65 163.049 746.799 166.37 741.848 168.613C736.896 170.898 731.141 172.041 724.582 172.041C721.704 172.041 718.658 171.66 715.441 170.898C712.268 170.137 709.221 168.952 706.301 167.344C703.423 165.736 701.011 163.704 699.064 161.25L707.126 150.459C709.242 152.913 711.696 154.818 714.489 156.172C717.282 157.568 720.371 158.267 723.757 158.267C727.058 158.267 729.851 157.653 732.136 156.426C734.421 155.241 736.177 153.485 737.404 151.157C738.632 148.872 739.245 146.1 739.245 142.842V92.1875L741.022 76.3184ZM694.812 111.484V110.151C694.812 104.904 695.446 100.143 696.716 95.8691C698.028 91.5527 699.868 87.8499 702.238 84.7607C704.65 81.6715 707.57 79.2806 710.998 77.5879C714.426 75.8952 718.298 75.0488 722.614 75.0488C727.185 75.0488 731.014 75.8952 734.104 77.5879C737.193 79.2806 739.732 81.6927 741.721 84.8242C743.71 87.9134 745.254 91.5739 746.354 95.8057C747.497 99.9951 748.386 104.587 749.021 109.58V112.5C748.386 117.282 747.434 121.725 746.164 125.83C744.895 129.935 743.223 133.532 741.149 136.621C739.076 139.668 736.494 142.038 733.405 143.73C730.358 145.423 726.719 146.27 722.487 146.27C718.256 146.27 714.426 145.402 710.998 143.667C707.613 141.932 704.714 139.499 702.302 136.367C699.89 133.236 698.028 129.554 696.716 125.322C695.446 121.09 694.812 116.478 694.812 111.484ZM713.093 110.151V111.484C713.093 114.32 713.368 116.965 713.918 119.419C714.468 121.873 715.314 124.053 716.457 125.957C717.642 127.819 719.102 129.279 720.837 130.337C722.614 131.353 724.709 131.86 727.121 131.86C730.464 131.86 733.194 131.162 735.31 129.766C737.425 128.327 739.012 126.359 740.07 123.862C741.128 121.366 741.742 118.488 741.911 115.229V106.914C741.826 104.248 741.467 101.857 740.832 99.7412C740.197 97.583 739.309 95.7422 738.166 94.2188C737.023 92.6953 735.542 91.5104 733.723 90.6641C731.903 89.8177 729.745 89.3945 727.248 89.3945C724.836 89.3945 722.741 89.9447 720.964 91.0449C719.229 92.1029 717.769 93.5628 716.584 95.4248C715.441 97.2868 714.574 99.4873 713.981 102.026C713.389 104.523 713.093 107.231 713.093 110.151ZM791.105 76.3184V145H772.761V76.3184H791.105ZM771.618 58.418C771.618 55.752 772.549 53.5514 774.411 51.8164C776.273 50.0814 778.77 49.2139 781.901 49.2139C784.991 49.2139 787.466 50.0814 789.328 51.8164C791.232 53.5514 792.185 55.752 792.185 58.418C792.185 61.084 791.232 63.2845 789.328 65.0195C787.466 66.7546 784.991 67.6221 781.901 67.6221C778.77 67.6221 776.273 66.7546 774.411 65.0195C772.549 63.2845 771.618 61.084 771.618 58.418ZM839.855 76.3184V89.2676H799.865V76.3184H839.855ZM809.768 59.3701H828.049V124.307C828.049 126.296 828.303 127.819 828.811 128.877C829.361 129.935 830.165 130.675 831.223 131.099C832.281 131.479 833.614 131.67 835.222 131.67C836.364 131.67 837.38 131.628 838.269 131.543C839.2 131.416 839.982 131.289 840.617 131.162L840.681 144.619C839.115 145.127 837.422 145.529 835.603 145.825C833.783 146.121 831.773 146.27 829.572 146.27C825.552 146.27 822.04 145.614 819.035 144.302C816.073 142.948 813.788 140.789 812.18 137.827C810.572 134.865 809.768 130.972 809.768 126.147V59.3701ZM887.336 129.512V98.916C887.336 96.7155 886.976 94.8324 886.257 93.2666C885.537 91.6585 884.416 90.4102 882.893 89.5215C881.411 88.6328 879.486 88.1885 877.116 88.1885C875.085 88.1885 873.329 88.5482 871.848 89.2676C870.367 89.9447 869.224 90.9391 868.42 92.251C867.616 93.5205 867.214 95.0228 867.214 96.7578H848.933C848.933 93.8379 849.61 91.0661 850.964 88.4424C852.318 85.8187 854.286 83.5124 856.867 81.5234C859.449 79.4922 862.517 77.9053 866.071 76.7627C869.668 75.6201 873.688 75.0488 878.132 75.0488C883.464 75.0488 888.203 75.9375 892.351 77.7148C896.498 79.4922 899.756 82.1582 902.126 85.7129C904.538 89.2676 905.744 93.7109 905.744 99.043V128.433C905.744 132.199 905.977 135.288 906.442 137.7C906.908 140.07 907.585 142.144 908.474 143.921V145H890.002C889.113 143.138 888.436 140.811 887.971 138.018C887.548 135.182 887.336 132.347 887.336 129.512ZM889.748 103.169L889.875 113.516H879.655C877.243 113.516 875.148 113.791 873.371 114.341C871.594 114.891 870.134 115.674 868.991 116.689C867.849 117.663 867.002 118.805 866.452 120.117C865.944 121.429 865.69 122.868 865.69 124.434C865.69 125.999 866.05 127.417 866.77 128.687C867.489 129.914 868.526 130.887 869.88 131.606C871.234 132.284 872.821 132.622 874.641 132.622C877.391 132.622 879.782 132.072 881.813 130.972C883.845 129.871 885.41 128.517 886.511 126.909C887.653 125.301 888.246 123.778 888.288 122.339L893.112 130.083C892.435 131.818 891.504 133.617 890.319 135.479C889.177 137.34 887.717 139.097 885.939 140.747C884.162 142.355 882.025 143.688 879.528 144.746C877.032 145.762 874.069 146.27 870.642 146.27C866.283 146.27 862.326 145.402 858.771 143.667C855.259 141.89 852.466 139.456 850.393 136.367C848.361 133.236 847.346 129.681 847.346 125.703C847.346 122.106 848.023 118.911 849.377 116.118C850.731 113.325 852.72 110.977 855.344 109.072C858.01 107.126 861.332 105.666 865.31 104.692C869.287 103.677 873.9 103.169 879.147 103.169H889.748ZM939.133 47.5V145H920.788V47.5H939.133Z" fill="white"/>
</svg>
