<svg width="800" height="800" viewBox="0 0 800 800" fill="none" xmlns="http://www.w3.org/2000/svg">
  <rect width="800" height="800" fill="white"/>
  <path opacity="0.2" d="M399 15.7304C321.451 15.7077 245.72 39.1817 181.811 83.0514C117.901 126.921 68.8201 189.122 41.0513 261.438C13.2825 333.754 8.13247 412.783 26.2815 488.084C44.4306 563.384 85.0247 631.415 142.702 683.188V683.188C166.734 635.921 203.402 596.224 248.641 568.495C293.879 540.767 345.922 526.09 399 526.092C367.417 526.092 336.543 516.739 310.282 499.214C284.022 481.689 263.554 456.78 251.468 427.638C239.382 398.495 236.219 366.427 242.381 335.49C248.542 304.552 263.751 276.134 286.084 253.829C308.417 231.524 336.87 216.335 367.847 210.181C398.823 204.027 430.931 207.185 460.11 219.256C489.289 231.328 514.229 251.77 531.775 277.997C549.322 304.225 558.688 335.061 558.688 366.604C558.688 408.903 541.863 449.47 511.916 479.379C481.969 509.289 441.352 526.092 399 526.092C452.078 526.09 504.121 540.767 549.36 568.495C594.598 596.224 631.266 635.921 655.298 683.188C712.975 631.415 753.569 563.384 771.719 488.084C789.868 412.783 784.718 333.754 756.949 261.438C729.18 189.122 680.099 126.921 616.189 83.0514C552.28 39.1817 476.549 15.7077 399 15.7304Z" fill="black"/>
  <path d="M399 781.273C610.663 781.273 782.25 609.901 782.25 398.502C782.25 187.103 610.663 15.7303 399 15.7303C187.337 15.7303 15.75 187.103 15.75 398.502C15.75 609.901 187.337 781.273 399 781.273Z" stroke="black" stroke-width="16" stroke-linecap="round" stroke-linejoin="round"/>
  <path d="M399 526.092C487.193 526.092 558.688 454.687 558.688 366.604C558.688 278.521 487.193 207.116 399 207.116C310.807 207.116 239.312 278.521 239.312 366.604C239.312 454.687 310.807 526.092 399 526.092Z" stroke="black" stroke-width="16" stroke-linecap="round" stroke-linejoin="round"/>
  <path d="M142.702 683.188C166.731 635.917 203.397 596.214 248.636 568.481C293.875 540.748 345.919 526.068 399 526.068C452.081 526.068 504.125 540.748 549.364 568.481C594.603 596.214 631.269 635.917 655.298 683.188" stroke="black" stroke-width="16" stroke-linecap="round" stroke-linejoin="round"/>
</svg>
