<?xml version="1.0" ?><!DOCTYPE svg  PUBLIC '-//W3C//DTD SVG 1.1//EN'  'http://www.w3.org/Graphics/SVG/1.1/DTD/svg11.dtd'><svg height="256px" style="shape-rendering:geometricPrecision; text-rendering:geometricPrecision; image-rendering:optimizeQuality; fill-rule:evenodd; clip-rule:evenodd" version="1.1" viewBox="0 0 256000 255998" width="256px" xml:space="preserve" xmlns="http://www.w3.org/2000/svg" xmlns:xlink="http://www.w3.org/1999/xlink"><defs><style type="text/css">
   <![CDATA[
    .fil2 {fill:none}
    .fil1 {fill:#292929}
    .fil0 {fill:#FE9900}
   ]]>
  </style></defs><g id="Layer_x0020_1"><g id="_392245384"><path class="fil0" d="M239174 222912c11648,-9855 16570,-27743 16825,-37081l0 -1561c0,-2084 -514,-3624 -1024,-4403 -2333,-2846 -19435,-5455 -34176,-1042 -4140,1309 -7774,3113 -11135,5445 -2592,1826 -2071,4137 514,3891 2847,-528 6481,-773 10621,-1311 9061,-755 19674,-1019 22261,2344 3611,4397 -4140,23596 -7519,31895 -1020,2602 1298,3646 3633,1823l0 0zm-237888 -37081c33389,30339 77391,48496 126585,48496 30545,0 65745,-8564 92926,-24895 3634,-2093 7243,-4423 10602,-7010 4664,-3359 523,-8563 -4136,-6494 -2066,779 -4399,1829 -6466,2602 -29784,11679 -61081,17127 -90086,17127 -46086,0 -90599,-12717 -126583,-33718 -3365,-1805 -5700,1555 -2842,3892l0 0z" id="Amazon_2_"/><path class="fil1" d="M151409 109504c0,10984 463,19566 -5244,29095 -3333,6679 -9050,10978 -15249,12416 -948,0 -2367,490 -3807,490 -10477,0 -16688,-8111 -16688,-20054 0,-15267 9061,-22435 20494,-25776 6200,-1435 13351,-1909 20493,-1909l0 5738 1 0zm0 -27698c-6197,490 -13346,962 -20493,1924 -10957,1415 -21913,3340 -30966,7621 -17629,7172 -29545,22433 -29545,44872 0,28171 18111,42466 40977,42466 7635,0 13827,-938 19534,-2374 9059,-2868 16684,-8108 25734,-17661 5243,7172 6664,10514 15727,18136 2384,961 4767,961 6664,-475 5717,-4773 15719,-13358 20975,-18131 2374,-1927 1891,-4776 473,-7170 -5247,-6678 -10484,-12417 -10484,-25284l0 -42962c0,-18150 1417,-34851 -11912,-47247 -10960,-10039 -28115,-13850 -41453,-13850 -1914,0 -3808,0 -5726,0 -24298,1437 -50028,11926 -55759,42002 -935,3811 1928,5246 3834,5735l26673 3344c2862,-495 4281,-2875 4756,-5269 2394,-10488 10968,-15733 20496,-16696 482,0 962,0 1918,0 5700,0 11895,2395 15241,7148 3796,5737 3334,13378 3334,20056l0 3815 2 0 0 0z" id="Amazon_2__0"/></g></g><rect class="fil2" height="255998" width="255998" x="2"/></svg>