<?xml version="1.0" ?><!DOCTYPE svg  PUBLIC '-//W3C//DTD SVG 1.1//EN'  'http://www.w3.org/Graphics/SVG/1.1/DTD/svg11.dtd'><svg height="512px" style="enable-background:new 0 0 512 512;" version="1.1" viewBox="0 0 512 512" width="512px" xml:space="preserve" xmlns="http://www.w3.org/2000/svg" xmlns:xlink="http://www.w3.org/1999/xlink"><g id="_x34_8-blogger"><g><path d="M484.563,221.759c-1.849-8.215-6.982-15.813-12.837-18.997c-1.848-1.026-13.35-2.259-25.672-2.772    c-20.638-0.924-22.896-1.334-29.47-5.134c-10.37-6.059-13.143-12.63-13.246-30.292c-0.102-33.886-14.17-65.411-41.998-93.751    c-19.818-20.229-41.997-33.886-67.258-41.587c-6.059-1.85-19.613-2.465-64.999-2.98c-71.263-0.82-87.077,0.617-111.311,10.27    C73.105,54.177,41.068,91.759,29.361,139.815c-2.157,9.036-2.67,23.515-3.183,106.691c-0.616,104.223,0.102,119.525,6.572,140.164    c16.019,50.932,61.509,88.617,107.203,96.829c15.198,2.775,202.597,3.391,221.799,0.823c33.372-4.518,59.557-17.968,84.099-43.025    c17.765-18.175,28.854-37.786,36.145-63.766C487.027,359.459,486.615,230.897,484.563,221.759L484.563,221.759z M153.816,156.451    c8.009-8.111,10.269-8.421,60.378-8.421c45.079,0,46.62,0.104,53.189,3.492c9.552,4.825,13.762,11.604,13.762,22.488    c0,9.754-3.901,16.635-12.63,22.18c-4.725,2.979-7.496,3.184-51.65,3.388c-27.211,0.206-48.981-0.409-52.164-1.23    C147.654,193.521,141.288,169.082,153.816,156.451z M350.764,361.614l-15.3,2.466l-79.58,0.923    c-69.928,0.821-89.643-0.41-93.34-2.054c-7.291-3.184-14.171-12.014-15.301-19.92c-1.13-7.496,2.67-17.764,8.42-23.001    c7.291-6.573,10.474-6.779,99.913-6.88c92.006-0.104,91.491-0.104,100.22,8.009C368.221,332.762,365.552,353.195,350.764,361.614    L350.764,361.614z" style="fill:#FE6700;"/></g></g><g id="Layer_1"/></svg>