<?xml version="1.0" ?><!DOCTYPE svg  PUBLIC '-//W3C//DTD SVG 1.1//EN'  'http://www.w3.org/Graphics/SVG/1.1/DTD/svg11.dtd'><svg height="512px" style="enable-background:new 0 0 512 512;" version="1.1" viewBox="0 0 512 512" width="512px" xml:space="preserve" xmlns="http://www.w3.org/2000/svg" xmlns:xlink="http://www.w3.org/1999/xlink"><g id="_x31_18-Evernote"><g><path d="M101.138,115.118h43.438c2.497,0,4.502-2.009,4.502-4.455c0,0-0.513-37.026-0.513-47.285V63.26    c0-8.45,1.774-15.813,4.898-21.99l1.491-2.763c-0.171,0.027-0.342,0.119-0.482,0.263l-84.352,83.161    c-0.171,0.147-0.258,0.315-0.315,0.492c1.748-0.865,4.133-2.046,4.471-2.184C81.587,116.909,90.478,115.118,101.138,115.118z" style="fill:#007E22;"/><path d="M438.993,106.067c-3.444-18.372-14.425-27.424-24.343-30.961    c-10.717-3.857-32.424-7.851-59.691-11.038c-21.93-2.592-47.734-2.358-63.334-1.903c-1.861-12.734-10.865-24.373-20.896-28.4    c-26.778-10.721-68.186-8.134-78.79-5.174c-8.427,2.357-17.777,7.162-22.994,14.578c-3.498,4.943-5.732,11.297-5.765,20.15    c0,5.003,0.149,16.816,0.262,27.311c0.144,10.52,0.256,19.952,0.256,20.007c0,9.367-7.655,16.991-17.118,17.024h-43.432    c-9.26,0-16.344,1.545-21.731,3.991c-5.416,2.442-9.265,5.75-12.159,9.629c-5.788,7.737-6.794,17.308-6.794,27.054    c0,0,0.088,7.963,2.012,23.371c1.604,11.934,14.615,95.271,26.977,120.626c4.784,9.866,7.971,13.973,17.402,18.318    c20.984,8.936,68.896,18.856,91.344,21.694c22.423,2.85,36.497,8.858,44.868-8.62c0.091-0.025,1.721-4.338,4.021-10.664    c7.273-21.933,8.28-41.396,8.28-55.482c0-1.438,2.121-1.496,2.121,0c0,9.944-1.893,45.136,24.829,54.563    c10.55,3.709,32.455,7.042,54.677,9.631c20.095,2.3,34.688,10.178,34.688,61.461c0,31.22-6.594,35.504-41.059,35.504    c-27.957,0-38.589,0.72-38.589-21.355c0-17.826,17.745-15.961,30.908-15.961c5.873,0,1.602-4.339,1.602-15.344    c0-10.956,6.879-17.283,0.375-17.453c-45.47-1.235-72.221-0.058-72.221,56.49c-0.028,51.375,19.725,60.885,84.261,60.885    c50.603,0,68.441-1.632,89.336-66.115c4.132-12.738,14.136-51.576,20.186-116.744C452.32,261.878,444.869,137.456,438.993,106.067    z M350.771,243.596c-6.246-0.227-12.271,0.174-17.857,1.065c1.577-12.651,6.823-28.204,25.458-27.572    c20.645,0.722,23.509,20.097,23.598,33.236C373.282,246.475,362.5,244.001,350.771,243.596z" style="fill:#00A82D;"/></g></g><g id="Layer_1"/></svg>