<?xml version="1.0" ?><!DOCTYPE svg  PUBLIC '-//W3C//DTD SVG 1.1//EN'  'http://www.w3.org/Graphics/SVG/1.1/DTD/svg11.dtd'><svg height="512px" style="enable-background:new 0 0 512 512;" version="1.1" viewBox="0 0 512 512" width="512px" xml:space="preserve" xmlns="http://www.w3.org/2000/svg" xmlns:xlink="http://www.w3.org/1999/xlink"><g id="_x31_36-foursquare"><g><path d="M380.975,26H135.498c-33.695,0-44.837,25.428-44.837,41.422V457.2    c0,18.241,10.873,24.891,16.354,27.046c5.57,2.247,20.486,4.134,29.562-6.377c115.819-134.242,117.796-136.487,117.796-136.487    c2.785-3.056,3.055-2.784,6.109-2.784h74.938c31.539,0,36.48-22.644,39.805-35.672l43.67-218.341    C426.531,46.486,416.916,26,380.975,26z" style="fill:#F94877;"/><path d="M366.328,92.312l-10.242,53.643c-1.078,5.839-8.535,11.86-15.186,11.86h-95.603    c-10.782,0-18.509,7.458-18.509,18.24v11.681c0,10.782,7.727,18.509,18.509,18.509h81.226c7.457,0,14.916,8.266,13.299,16.353    c-1.617,7.998-9.436,48.339-10.244,52.832c-0.807,4.404-6.107,12.131-15.184,12.131h-66.042c-12.13,0-15.455,1.619-23.811,11.322    c0,0-7.997,10.242-80.418,97.31c-0.808,0.809-1.617,0.54-1.617-0.271V91.502c0-6.917,6.11-14.915,14.916-14.915h196.776    C361.566,76.587,368.215,83.506,366.328,92.312z" style="fill:#F4F4F4;"/></g></g><g id="Layer_1"/></svg>