<?xml version="1.0" ?><!DOCTYPE svg  PUBLIC '-//W3C//DTD SVG 1.1//EN'  'http://www.w3.org/Graphics/SVG/1.1/DTD/svg11.dtd'><svg height="512px" style="enable-background:new 0 0 512 512;" version="1.1" viewBox="0 0 512 512" width="512px" xml:space="preserve" xmlns="http://www.w3.org/2000/svg" xmlns:xlink="http://www.w3.org/1999/xlink"><g id="_x31_59-groupon"><g><g id="_x31_00-groupon_4_"><g><g><g><path d="M483.395,227.248H227.327v86.253h127.421c-19.902,34.21-56.484,57.496-98.746,57.496        c-63.251,0-114.69-51.574-114.69-114.997c0-63.419,51.439-114.999,114.69-114.999c28.81,0,54.876,11.073,75.058,28.749        h137.428C434.365,85.572,352.051,26.001,256.002,26.001c-126.475,0-229.38,103.183-229.38,229.999        c0,126.813,102.905,229.999,229.38,229.999c126.47,0,229.375-103.187,229.375-229.999        C485.377,246.253,484.572,236.676,483.395,227.248L483.395,227.248z" style="fill:#81B44D;"/></g></g></g></g></g></g><g id="Layer_1"/></svg>