<?xml version="1.0" ?><!DOCTYPE svg  PUBLIC '-//W3C//DTD SVG 1.1//EN'  'http://www.w3.org/Graphics/SVG/1.1/DTD/svg11.dtd'><svg height="512px" style="enable-background:new 0 0 512 512;" version="1.1" viewBox="0 0 512 512" width="512px" xml:space="preserve" xmlns="http://www.w3.org/2000/svg" xmlns:xlink="http://www.w3.org/1999/xlink"><g id="_x31_88-jsfiddle"><g><g><path d="M437.296,240.904c-3.847-2.134-4.611-4.68-5.194-8.774c-1.917-13.428-2.883-27.377-7.408-39.98     c-29.23-81.397-125.397-116.763-201.015-74.63c-22.288,12.419-39.878,29.616-53.333,52.038c-2.592-1.227-4.444-2.206-6.371-3.001     c-24.514-10.114-48.086-8.242-69.488,7.465c-20.79,15.258-29.66,36.278-26.609,62.221c0.29,2.463-1.602,6.207-3.676,7.774     c-32.338,24.422-45.627,63.57-34.122,101.476c11.263,37.108,46.835,64.983,86,66.313c24.667,0.841,49.377,0.446,74.07,0.441     c68.438-0.02,136.881,0.431,205.308-0.394c42.886-0.516,78.264-30.025,88.12-71.084     C492.974,301.619,474.503,261.535,437.296,240.904L437.296,240.904z M454.484,368.655c-14.844,18.268-34.48,28.709-58.045,29.031     c-46.313,0.635-92.643,0.187-138.967,0.187c0,0.57-132.757,0.131-133.327,0.127c-35.716-0.27-62.491-16.097-77.504-48.856     c-15.392-33.588-3.26-73.979,27.839-94.548c7.477-4.945,10.184-9.418,8.222-18.841c-4.471-21.466,3.625-39.051,21.514-51.287     c18.72-12.803,38.618-13.148,58.66-2.511c8.362,4.439,11.895,9.417,18.076-2.058c11.582-21.498,28.142-38.051,49.407-49.913     c79.362-44.272,185.967,6.163,187.489,108.058c0.101,6.638,1.965,10.122,8.019,12.944     C472.742,272.834,486.501,329.262,454.484,368.655z M382.996,303.104c-4.762,25.373-28.193,44.866-54.288,44.863     c-13.805,0-26.105-5.326-35.895-14.417c-22.554-20.938-57.931-61.057-78.123-76.047c-16.332-12.124-34.194-10.043-49.081,3.08     c-40.714,35.888,12.914,99.165,54.611,62.856c3.704-3.225,6.385-7.771,10.377-10.46c6.665-4.484,16.911-0.718,10.723,8.651     c-14.135,21.402-40.17,31.104-64.22,23.86c-23.531-7.088-39.771-29.29-39.598-57.149c0.999-18.312,10.069-35.065,28.839-45.574     c18.383-10.292,37.759-10.706,54.553,2.015c41.359,31.331,61.545,66.568,87.373,82.447c19.999,12.295,44.18,5.996,56.044-14.257     c23.478-40.07-28.17-85.516-64.225-51.676c-3.248,3.049-5.633,7.273-9.29,9.544c-8.937,5.547-14.114-3.351-10.432-8.431     c16.859-23.252,41.095-32.931,67.811-22.976C373.769,248.973,388.166,275.562,382.996,303.104L382.996,303.104z" style="fill:#2795EE;"/></g></g></g><g id="Layer_1"/></svg>