<?xml version="1.0" ?><!DOCTYPE svg  PUBLIC '-//W3C//DTD SVG 1.1//EN'  'http://www.w3.org/Graphics/SVG/1.1/DTD/svg11.dtd'><svg height="512px" style="enable-background:new 0 0 512 512;" version="1.1" viewBox="0 0 512 512" width="512px" xml:space="preserve" xmlns="http://www.w3.org/2000/svg" xmlns:xlink="http://www.w3.org/1999/xlink"><g id="_x31_91-kickstarter"><g><g><path d="M210.094,110.621c0-57.714-33.376-84.62-75.377-84.62c-48.985,0-75.892,37.175-75.892,83.592     v290.623c0,48.575,25.983,85.646,76.918,85.646c40.873,0,74.351-26.289,74.351-85.646v-78.561l115.119,142.027     c23.31,27.931,74.041,31.525,105.979,0c27.728-28.345,28.036-69.218,7.6-94.685l-93.245-117.893l76.917-110.293     c17.868-25.365,17.971-64.798-10.681-92.219c-31.115-29.781-84.619-32.451-116.66,13.145l-85.028,121.384V110.621z" style="fill:#044651;"/></g></g></g><g id="Layer_1"/></svg>