<?xml version="1.0" ?><!DOCTYPE svg  PUBLIC '-//W3C//DTD SVG 1.1//EN'  'http://www.w3.org/Graphics/SVG/1.1/DTD/svg11.dtd'><svg height="2048px" style="shape-rendering:geometricPrecision; text-rendering:geometricPrecision; image-rendering:optimizeQuality; fill-rule:evenodd; clip-rule:evenodd" viewBox="0 0 2048 2048" width="2048px" xml:space="preserve" xmlns="http://www.w3.org/2000/svg" xmlns:xlink="http://www.w3.org/1999/xlink"><defs><style type="text/css">
   <![CDATA[
    .fil2 {fill:none}
    .fil1 {fill:#FEFEFE}
    .fil0 {fill:#E42200}
   ]]>
  </style></defs><g id="Layer_x0020_1"><rect class="fil0" height="1536" width="1536" x="255.999" y="255.999"/><path class="fil1" d="M1097.11 820.183l3.43937 -1.59803 178.596 383.41c12.2599,26.3185 30.1122,49.9961 55.3666,64.9985 20.4307,12.137 43.6689,17.3055 67.3312,16.1669 20.4484,-0.982678 40.7528,-6.57402 59.0067,-15.7996 17.3965,-8.79095 33.3591,-21.1335 45.4441,-36.4878 26.2973,-33.4134 26.6362,-71.6056 8.96457,-108.37 -39.052,-26.3433 -82.376,-44.4178 -125.967,-61.8815 -47.2099,-18.913 -91.8591,-31.4032 -131.504,-65.3764l-2.01614 -1.72795c-34.6063,-29.6551 -57.3886,-68.6245 -64.7563,-113.723 -6.20906,-38.0067 -0.912993,-77.5949 13.6819,-113.136 12.4205,-30.2481 32.0587,-57.2611 56.9469,-78.4631 25.5673,-21.7819 56.1166,-36.9898 88.9985,-43.9323 41.8618,-8.84174 84.9638,-3.65788 124.238,12.9744 47.2394,20.0043 86.3859,54.8705 117.739,94.9371l30.3107 38.7343 -96.7501 75.5729 -30.2575 -38.6729c-17.8701,-22.8402 -40.7528,-45.1052 -67.6205,-56.8607 -16.5402,-7.2378 -34.5402,-10.2898 -52.3607,-6.52678 -12.8162,2.70591 -24.6721,8.72835 -34.6276,17.2099 -10.0311,8.54646 -18.039,19.474 -23.0469,31.6689 -5.59252,13.6193 -7.18229,28.3819 -4.45394,42.8599 3.13937,16.6642 11.6291,31.5213 22.6512,44.204 30.6355,19.3276 64.9961,32.8559 98.4969,46.2768 26.4969,10.6146 52.9571,21.3354 78.6544,33.7914 29.7744,14.4331 58.3973,31.1516 85.1327,50.6752l4.1563 3.03544 10.1599 11.3232 2.53229 4.35118c40.1398,68.9575 48.2233,148.303 10.8839,220.376 -6.69922,12.9295 -14.661,25.1894 -23.6646,36.6307 -23.1792,29.452 -53.1969,53.2595 -86.5985,70.1398 -33.6355,16.9984 -70.8438,27.0307 -108.506,28.8414 -47.4792,2.28189 -94.356,-8.49922 -135.397,-32.674 -47.1296,-27.7618 -81.5965,-70.0371 -104.53,-119.27l-134.001 -287.671 -0.64252 0.285827 -20.061 -44.6504c-26.5051,-58.989 -73.8012,-105.487 -133.199,-131.05 -58.741,-25.2815 -126.396,-27.7051 -186.782,-6.64134 -64.7871,22.6004 -117.374,69.515 -147.204,131.307 -29.7248,61.5756 -33.7784,132.382 -11.2571,196.943 22.6004,64.7882 69.5162,117.374 131.307,147.204 61.5756,29.7272 132.383,33.7784 196.944,11.2583 26.0244,-9.07914 50.5229,-22.3323 72.3603,-39.15 21.8445,-16.8248 40.904,-37.1457 56.3327,-59.9977l27.4866 -40.7103 101.828 68.6871 -27.5091 40.7457c-22.7764,33.7359 -50.9481,63.6934 -83.1957,88.5296 -32.2547,24.8421 -68.426,44.4178 -106.869,57.8256 -95.243,33.2244 -199.919,27.254 -290.762,-16.6004 -91.1375,-43.9985 -160.521,-121.802 -193.854,-217.356 -33.2244,-95.2453 -27.2528,-199.919 16.6016,-290.763 43.9985,-91.1375 121.802,-160.521 217.355,-193.853 44.6351,-15.5705 91.9099,-22.6973 139.149,-20.9882 47.0055,1.70079 93.4135,12.1311 136.619,30.7264 69.3119,29.8323 127.833,79.2686 168.678,142.24z"/></g><rect class="fil2" height="2048" width="2048"/></svg>