<?xml version="1.0" ?><!DOCTYPE svg  PUBLIC '-//W3C//DTD SVG 1.1//EN'  'http://www.w3.org/Graphics/SVG/1.1/DTD/svg11.dtd'><svg enable-background="new 0 0 128 128" height="128px" id="Layer_1" version="1.1" viewBox="0 0 128 128" width="128px" xml:space="preserve" xmlns="http://www.w3.org/2000/svg" xmlns:xlink="http://www.w3.org/1999/xlink"><g><rect fill="#F54B00" height="128" width="128"/></g><g><path d="M114,61.087c0-6.409-5.214-11.623-11.623-11.623c-2.932,0-5.605,1.101-7.654,2.899   c-7.283-4.678-16.91-7.723-27.572-8.255l5.605-17.721l15.297,3.604c0.172,5.163,4.414,9.312,9.619,9.312   c5.312,0,9.637-4.322,9.637-9.636s-4.322-9.636-9.637-9.636c-3.857,0-7.186,2.285-8.723,5.567L71.76,21.554   c-1.14-0.268-2.294,0.388-2.646,1.504l-6.637,20.979c-11.352,0.223-21.651,3.288-29.369,8.172   c-2.024-1.709-4.636-2.745-7.485-2.745C19.214,49.464,14,54.678,14,61.087c0,4.08,2.118,7.668,5.307,9.743   c-0.163,1.039-0.25,2.094-0.25,3.161c0,16.528,20.068,29.977,44.738,29.977c24.669,0,44.738-13.448,44.738-29.977   c0-0.989-0.076-1.968-0.217-2.935C111.713,69.027,114,65.324,114,61.087z M97.672,24.51c2.846,0,5.158,2.314,5.158,5.158   c0,2.845-2.312,5.158-5.158,5.158c-2.845,0-5.158-2.313-5.158-5.158C92.514,26.824,94.827,24.51,97.672,24.51z M18.478,61.087   c0-3.94,3.205-7.146,7.145-7.146c1.331,0,2.574,0.373,3.643,1.011c-3.987,3.24-6.971,7.052-8.654,11.219   C19.295,64.874,18.478,63.075,18.478,61.087z M104.057,73.991c0,14.06-18.062,25.499-40.262,25.499S23.534,88.051,23.534,73.991   c0-0.493,0.027-0.983,0.071-1.47c0.135-1.496,0.48-2.955,1.006-4.371c1.365-3.672,3.984-7.041,7.56-9.911   c1.144-0.919,2.384-1.787,3.711-2.598c7.244-4.421,17.083-7.148,27.913-7.148c10.988,0,20.958,2.805,28.229,7.34   c1.33,0.829,2.566,1.717,3.705,2.656c3.435,2.829,5.945,6.126,7.268,9.711c0.521,1.42,0.865,2.883,0.996,4.383   C104.032,73.05,104.057,73.52,104.057,73.991z M107.093,66.439c-1.637-4.211-4.612-8.062-8.599-11.345   c1.12-0.728,2.451-1.155,3.883-1.155c3.939,0,7.146,3.205,7.146,7.146C109.521,63.219,108.578,65.129,107.093,66.439z" fill="#FFFFFF"/><path d="M55.91,68.602c0-3.774-3.062-6.941-6.838-6.941c-3.774,0-6.941,3.167-6.941,6.941s3.167,6.838,6.941,6.838   C52.848,75.438,55.91,72.376,55.91,68.602z" fill="#FFFFFF"/><path d="M79.03,61.658c-3.776,0-6.951,3.165-6.951,6.941c0,3.775,3.175,6.838,6.951,6.838s6.838-3.062,6.838-6.838   C85.868,64.823,82.807,61.658,79.03,61.658z" fill="#FFFFFF"/><path d="M77.1,85.178c-2.531,2.528-6.799,3.758-13.048,3.758c-0.019,0-0.036,0.006-0.054,0.006   c-0.019,0-0.035-0.006-0.054-0.006c-6.25,0-10.516-1.229-13.045-3.758c-0.874-0.874-2.292-0.874-3.166,0s-0.874,2.292,0,3.166   c3.411,3.411,8.714,5.069,16.211,5.069c0.019,0,0.035-0.005,0.054-0.005c0.018,0,0.035,0.005,0.054,0.005   c7.496,0,12.8-1.658,16.214-5.068c0.875-0.874,0.875-2.291,0.002-3.166C79.393,84.304,77.975,84.304,77.1,85.178z" fill="#FFFFFF"/></g><g id="Layer_3" transform="translate(-56.49872,470.00082)"/></svg>