<?xml version="1.0" ?><!DOCTYPE svg  PUBLIC '-//W3C//DTD SVG 1.1//EN'  'http://www.w3.org/Graphics/SVG/1.1/DTD/svg11.dtd'><svg height="512px" style="enable-background:new 0 0 512 512;" version="1.1" viewBox="0 0 512 512" width="512px" xml:space="preserve" xmlns="http://www.w3.org/2000/svg" xmlns:xlink="http://www.w3.org/1999/xlink"><g id="_x33_08-slideshare"><g><g><path d="M194.599,164.076c-30.543,0-55.429,23.087-55.429,51.834c0,28.477,24.886,51.833,55.429,51.833     c30.543,0,55.427-23.356,55.427-51.833C250.026,187.163,225.143,164.076,194.599,164.076z M323.42,164.076     c-30.543,0-55.428,23.087-55.428,51.834c0,28.477,24.885,51.833,55.428,51.833c30.813,0,55.428-23.356,55.428-51.833     C378.938,187.163,354.232,164.076,323.42,164.076z M464.1,244.926l-5.391,3.863V70.648c0-24.615-18.504-44.648-41.322-44.648     H94.793c-22.818,0-41.324,20.033-41.324,44.648v178.14c-1.797-1.257-3.862-2.604-5.659-3.863     c-13.565-9.522-22.548,3.594-14.374,15.9c16.438,20.304,47.7,45.187,95.493,64.681     C78.354,497.72,252.362,525.208,249.577,436.992c0-0.63,0.27-50.847,0.27-86.779c4.582,0.986,8.444,2.064,12.306,2.783     c0,35.665,0.271,83.366,0.271,83.996c-2.785,88.304,171.223,60.817,120.646-111.396c47.703-19.495,79.055-44.379,95.494-64.68     C486.74,248.52,477.756,235.494,464.1,244.926z M436.701,262.174c-61.896,33.598-115.256,27.939-144.273,26.681     c-21.291-0.81-29.285,8.176-30.275,22.367c-9.252-6.916-16.708-13.923-18.236-15.36c-4.581-4.851-12.307-7.186-24.344-6.917     c-28.479,0.989-80.581,6.648-141.399-25.153V90.951c0-31.352,7.996-41.054,36.473-41.054h285.402     c27.221,0,36.742,11.588,36.742,41.054v171.223H436.701z" style="fill:#1092CE;"/></g></g></g><g id="Layer_1"/></svg>