<?xml version="1.0" ?><!DOCTYPE svg  PUBLIC '-//W3C//DTD SVG 1.1//EN'  'http://www.w3.org/Graphics/SVG/1.1/DTD/svg11.dtd'><svg enable-background="new 0 0 128 128" height="128px" id="Layer_1" version="1.1" viewBox="0 0 128 128" width="128px" xml:space="preserve" xmlns="http://www.w3.org/2000/svg" xmlns:xlink="http://www.w3.org/1999/xlink"><g><g><g><rect fill="#F7EC1E" height="128" width="128" x="0.002"/></g></g><g><g><g><path d="M109.049,86.904c-0.394-1.303-2.278-2.223-2.278-2.223l0,0c-0.178-0.092-0.338-0.178-0.469-0.242      c-3.141-1.52-5.925-3.348-8.27-5.42c-1.885-1.67-3.497-3.506-4.791-5.457c-1.584-2.381-2.324-4.369-2.644-5.447      c-0.178-0.703-0.15-0.984,0-1.35c0.122-0.309,0.487-0.6,0.656-0.74c1.06-0.75,2.766-1.857,3.816-2.531      c0.909-0.591,1.688-1.098,2.146-1.416c1.472-1.031,2.484-2.081,3.075-3.216c0.77-1.463,0.863-3.075,0.263-4.659      c-0.806-2.139-2.804-3.413-5.344-3.413c-0.562,0-1.144,0.065-1.726,0.188c-1.453,0.319-2.831,0.834-3.984,1.284      c-0.084,0.038-0.178-0.027-0.168-0.121c0.121-2.859,0.262-6.704-0.057-10.351c-0.281-3.301-0.966-6.085-2.072-8.514      c-1.115-2.438-2.568-4.237-3.703-5.541c-1.078-1.237-2.981-3.065-5.851-4.706c-4.031-2.307-8.625-3.479-13.65-3.479      c-5.016,0-9.601,1.172-13.642,3.479c-3.038,1.734-4.979,3.693-5.86,4.706c-1.134,1.304-2.587,3.104-3.703,5.541      c-1.116,2.429-1.791,5.204-2.072,8.514c-0.319,3.666-0.188,7.2-0.056,10.351c0,0.094-0.084,0.159-0.178,0.121      c-1.154-0.45-2.532-0.965-3.985-1.284c-0.572-0.122-1.153-0.188-1.725-0.188c-2.531,0-4.528,1.275-5.344,3.413      c-0.6,1.584-0.506,3.196,0.262,4.659c0.6,1.135,1.604,2.185,3.075,3.216c0.45,0.318,1.238,0.825,2.147,1.416      c1.022,0.664,2.681,1.744,3.75,2.484c0.131,0.094,0.581,0.432,0.722,0.787c0.15,0.375,0.178,0.656-0.019,1.406      c-0.328,1.088-1.068,3.057-2.625,5.391c-1.293,1.959-2.906,3.787-4.791,5.457c-2.344,2.072-5.128,3.9-8.27,5.418      c-0.15,0.076-0.328,0.16-0.516,0.273l0,0c0,0-1.875,0.955-2.231,2.193c-0.525,1.828,0.872,3.543,2.288,4.463      c2.325,1.5,5.156,2.307,6.797,2.746c0.459,0.123,0.872,0.236,1.247,0.348c0.234,0.076,0.825,0.299,1.078,0.629      c0.318,0.412,0.356,0.918,0.469,1.49l0,0c0.178,0.965,0.582,2.156,1.772,2.982c1.312,0.898,2.972,0.965,5.082,1.049      c2.203,0.084,4.941,0.188,8.082,1.229c1.454,0.479,2.775,1.293,4.294,2.232c3.188,1.959,7.154,4.396,13.923,4.396      c6.778,0,10.772-2.447,13.979-4.416c1.519-0.928,2.821-1.734,4.247-2.203c3.141-1.041,5.879-1.145,8.081-1.229      c2.109-0.084,3.77-0.141,5.082-1.051c1.275-0.881,1.641-2.193,1.81-3.178c0.094-0.486,0.15-0.928,0.432-1.285      c0.243-0.309,0.786-0.525,1.04-0.609c0.385-0.121,0.815-0.234,1.294-0.365c1.641-0.439,3.703-0.957,6.206-2.371      C109.161,90.045,109.367,87.945,109.049,86.904z" fill="#FFFFFF"/></g><path d="M111.655,85.893c-0.665-1.818-1.94-2.785-3.385-3.592c-0.271-0.158-0.525-0.291-0.731-0.385     c-0.432-0.225-0.872-0.439-1.312-0.664c-4.509-2.391-8.034-5.41-10.473-8.982c-0.825-1.209-1.396-2.297-1.8-3.188     c-0.206-0.6-0.197-0.938-0.047-1.248c0.112-0.234,0.412-0.477,0.581-0.6c0.778-0.516,1.575-1.031,2.119-1.377     c0.966-0.629,1.734-1.127,2.222-1.463c1.856-1.295,3.15-2.673,3.957-4.21c1.144-2.166,1.284-4.641,0.403-6.966     c-1.219-3.226-4.275-5.232-7.97-5.232c-0.769,0-1.547,0.085-2.315,0.254c-0.207,0.047-0.403,0.094-0.601,0.141     c0.038-2.194-0.019-4.538-0.215-6.826c-0.694-8.062-3.516-12.291-6.46-15.657c-1.229-1.406-3.366-3.459-6.572-5.297     c-4.473-2.569-9.535-3.862-15.058-3.862c-5.503,0-10.566,1.293-15.038,3.854c-3.225,1.837-5.363,3.899-6.582,5.297     c-2.944,3.365-5.766,7.594-6.46,15.657c-0.197,2.287-0.244,4.631-0.216,6.825c-0.197-0.047-0.403-0.094-0.6-0.141     c-0.769-0.169-1.557-0.253-2.316-0.253c-3.694,0-6.75,2.006-7.969,5.231c-0.881,2.325-0.741,4.8,0.403,6.966     c0.806,1.538,2.109,2.915,3.956,4.21c0.497,0.346,1.257,0.844,2.222,1.463c0.525,0.338,1.285,0.834,2.035,1.33     c0.112,0.076,0.515,0.375,0.656,0.656c0.159,0.318,0.159,0.666-0.075,1.305c-0.394,0.871-0.966,1.939-1.772,3.121     c-2.391,3.498-5.813,6.459-10.172,8.822c-2.316,1.229-4.716,2.045-5.729,4.801c-0.769,2.08-0.263,4.453,1.678,6.449l0,0     c0.638,0.686,1.444,1.295,2.457,1.857c2.381,1.312,4.407,1.959,6,2.4c0.281,0.084,0.928,0.291,1.209,0.543     c0.712,0.619,0.609,1.557,1.556,2.926c0.572,0.854,1.229,1.434,1.772,1.809c1.979,1.369,4.209,1.453,6.572,1.547     c2.128,0.084,4.547,0.18,7.304,1.088c1.144,0.375,2.334,1.107,3.703,1.951c3.3,2.035,7.829,4.809,15.395,4.809     c7.576,0,12.123-2.793,15.451-4.828c1.369-0.834,2.55-1.566,3.656-1.932c2.757-0.908,5.176-1.004,7.304-1.088     c2.362-0.094,4.585-0.178,6.572-1.547c0.619-0.43,1.406-1.133,2.025-2.203c0.675-1.152,0.666-1.969,1.303-2.521     c0.263-0.225,0.835-0.422,1.144-0.516c1.604-0.441,3.657-1.088,6.085-2.428c1.079-0.59,1.913-1.238,2.579-1.979     c0.009-0.01,0.019-0.02,0.027-0.027C111.945,90.223,112.405,87.926,111.655,85.893z M104.933,89.502     c-4.106,2.27-6.834,2.025-8.953,3.385c-1.8,1.162-0.741,3.666-2.044,4.566c-1.613,1.115-6.366-0.076-12.508,1.949     c-5.062,1.68-8.297,6.488-17.419,6.488c-9.142,0-12.282-4.791-17.42-6.488c-6.141-2.025-10.904-0.834-12.507-1.949     c-1.303-0.9-0.244-3.404-2.044-4.566c-2.119-1.369-4.847-1.125-8.954-3.385c-2.616-1.443-1.134-2.336-0.263-2.758     c14.87-7.189,17.232-18.311,17.345-19.145c0.131-0.992,0.271-1.779-0.825-2.803c-1.059-0.984-5.775-3.9-7.079-4.809     c-2.166-1.51-3.112-3.02-2.409-4.876c0.487-1.284,1.688-1.763,2.953-1.763c0.394,0,0.797,0.047,1.181,0.132     c2.372,0.516,4.679,1.706,6.01,2.025c0.188,0.046,0.347,0.065,0.488,0.065c0.712,0,0.956-0.356,0.909-1.173     c-0.15-2.597-0.525-7.659-0.113-12.395c0.562-6.506,2.663-9.731,5.157-12.591c1.2-1.369,6.826-7.313,17.579-7.313     c10.782,0,16.38,5.944,17.579,7.313c2.494,2.85,4.595,6.075,5.156,12.591c0.413,4.735,0.057,9.798-0.111,12.395     c-0.057,0.854,0.205,1.173,0.909,1.173c0.141,0,0.31-0.02,0.487-0.065c1.332-0.319,3.638-1.51,6.01-2.025     c0.385-0.085,0.787-0.132,1.182-0.132c1.266,0,2.465,0.487,2.953,1.763c0.703,1.856-0.254,3.366-2.41,4.876     c-1.303,0.909-6.019,3.824-7.078,4.809c-1.097,1.014-0.956,1.801-0.825,2.803c0.104,0.836,2.475,11.955,17.345,19.145     C106.058,87.166,107.549,88.057,104.933,89.502z"/></g></g></g></svg>