<?xml version="1.0" ?><!DOCTYPE svg  PUBLIC '-//W3C//DTD SVG 1.1//EN'  'http://www.w3.org/Graphics/SVG/1.1/DTD/svg11.dtd'><svg enable-background="new 0 0 50 50" id="Layer_1" version="1.1" viewBox="0 0 50 50" xml:space="preserve" xmlns="http://www.w3.org/2000/svg" xmlns:xlink="http://www.w3.org/1999/xlink"><path d="M45,1H5C2.8,1,1,2.8,1,5v40c0,2.2,1.8,4,4,4h40c2.2,0,4-1.8,4-4V5C49,2.8,47.2,1,45,1z" fill="#E62B25"/><g id="Ted"><path d="M35,18.5c3.6,0,5,3.6,5,6.3c0,3.3-1.2,6.7-5,6.7h-5v-13H35z M33,28.5h1c2.1,0,3-0.7,3-3.7   s-1-3.3-3-3.3h-1V28.5z" fill="#FFFFFF" id="D_1_"/><path d="M20,18.5h9v3h-6v2h6v3h-6v2h6v3h-9V18.5z" fill="#FFFFFF" id="E_1_"/><path d="M13,21.5h-3v-3h9v3h-3v10h-3L13,21.5z" fill="#FFFFFF" id="T_1_"/></g></svg>