<svg viewBox="0 0 11 16" xmlns="http://www.w3.org/2000/svg"><path d="m8.48931137.05120537h1.56191903v15.92240503h-1.56191903z" fill="#89c6be"/><path d="m.01604005 3.67765197h1.95731088v-3.64391177h2.59406155v3.64391177h2.34397012v1.99830549h-2.34397012v6.48879244c0 .2818683.01140085.5251677.03420262.7286853.02255913.2040028.07568235.3762287.15912699.5174054.08344468.1409342.2083691.2466954.37574353.3172838.16664676.0705883.39417899.1057612.68259672.1057612.18192877 0 .36410009-.0036386.54602885-.011886.18217133-.0075197.36410009-.0351729.54627141-.0819892v2.0688939c-.28841773.0310491-.56907314.0623409-.84196627.0941177-.27313572.0308066-.55403373.0468164-.84196631.0468164-.68283927 0-1.23274928-.0669498-1.64997257-.1996365-.41746586-.1331718-.74323962-.3294124-.97829158-.5879937-.2355371-.2585815-.39466412-.5838701-.47810878-.9758659-.08368723-.3912681-.13292928-.8380852-.14772616-1.3397234v-7.17066144h-1.95731088z" fill="#33393f"/></svg>