<?xml version="1.0" ?><!DOCTYPE svg  PUBLIC '-//W3C//DTD SVG 1.1//EN'  'http://www.w3.org/Graphics/SVG/1.1/DTD/svg11.dtd'><svg height="512px" style="enable-background:new 0 0 512 512;" version="1.1" viewBox="0 0 512 512" width="512px" xml:space="preserve" xmlns="http://www.w3.org/2000/svg" xmlns:xlink="http://www.w3.org/1999/xlink"><g id="_x33_47-uber"><g><path d="M451.24,26.001H60.86c-19.201,0-34.808,15.607-34.808,34.809v390.279c0,19.303,15.606,34.91,34.808,34.91h390.278    c19.202,0,34.808-15.607,34.808-34.807V60.81C486.05,41.608,470.443,26.001,451.24,26.001z"/><path d="M270.017,394.718c-76.599,7.7-144.982-48.155-152.684-124.756h96.929v20.948    c0,3.801,3.079,6.983,6.982,6.983h69.716c3.801,0,6.984-3.082,6.984-6.983v-69.718c0-3.799-3.081-6.981-6.984-6.981h-69.716    c-3.8,0-6.982,3.079-6.982,6.981v20.946h-96.929c7.188-71.259,67.151-125.473,138.718-125.473    c71.565,0,131.53,54.214,138.717,125.473C402.47,318.634,346.613,387.02,270.017,394.718z" style="fill:#FFFFFF;"/></g></g><g id="Layer_1"/></svg>