<?xml version="1.0" ?><!DOCTYPE svg  PUBLIC '-//W3C//DTD SVG 1.1//EN'  'http://www.w3.org/Graphics/SVG/1.1/DTD/svg11.dtd'><svg enable-background="new 0 0 128 128" height="128px" id="Layer_1" version="1.1" viewBox="0 0 128 128" width="128px" xml:space="preserve" xmlns="http://www.w3.org/2000/svg" xmlns:xlink="http://www.w3.org/1999/xlink"><g><g><rect fill="#25D366" height="128" width="128"/></g><g><g><path d="M96.598,31.213c-8.647-8.659-20.15-13.429-32.406-13.435c-25.247,0-45.798,20.548-45.808,45.805     c-0.003,8.074,2.106,15.954,6.114,22.899L18,110.222l24.283-6.368c6.691,3.646,14.225,5.571,21.891,5.574h0.02l0,0     c25.246,0,45.796-20.552,45.807-45.809C110.004,51.382,105.243,39.872,96.598,31.213 M64.193,101.691h-0.016     c-6.833-0.002-13.533-1.839-19.38-5.307l-1.39-0.825l-14.409,3.779l3.845-14.049l-0.905-1.443     c-3.812-6.06-5.824-13.065-5.82-20.261c0.007-20.992,17.088-38.07,38.088-38.07c10.17,0.003,19.728,3.968,26.917,11.166     c7.188,7.197,11.146,16.761,11.143,26.936C102.259,84.61,85.178,101.691,64.193,101.691 M85.077,73.176     c-1.146-0.573-6.771-3.341-7.821-3.725c-1.05-0.382-1.811-0.572-2.575,0.575c-0.764,1.146-2.956,3.724-3.625,4.487     c-0.668,0.763-1.335,0.859-2.48,0.286c-1.144-0.573-4.833-1.781-9.202-5.683c-3.403-3.032-5.7-6.784-6.368-7.929     c-0.668-1.147-0.071-1.765,0.501-2.335c0.516-0.513,1.145-1.336,1.717-2.006c0.572-0.668,0.762-1.146,1.145-1.909     c0.381-0.763,0.191-1.432-0.096-2.004c-0.286-0.574-2.576-6.208-3.528-8.499c-0.93-2.231-1.874-1.929-2.575-1.964     c-0.668-0.033-1.432-0.041-2.194-0.041c-0.763,0-2.004,0.286-3.052,1.432c-1.049,1.146-4.007,3.915-4.007,9.549     c0,5.633,4.102,11.076,4.675,11.84c0.572,0.762,8.07,12.326,19.552,17.283c2.731,1.178,4.864,1.883,6.525,2.411     c2.741,0.872,5.236,0.748,7.209,0.453c2.2-0.327,6.772-2.767,7.729-5.442c0.952-2.674,0.952-4.965,0.665-5.442     S86.222,73.749,85.077,73.176" fill="#FFFFFF"/></g></g></g></svg>