<?xml version="1.0" ?><svg height="512" id="Layer_1" version="1.1" viewBox="0 0 512 512" width="512" xml:space="preserve" xmlns="http://www.w3.org/2000/svg" xmlns:cc="http://creativecommons.org/ns#" xmlns:dc="http://purl.org/dc/elements/1.1/" xmlns:inkscape="http://www.inkscape.org/namespaces/inkscape" xmlns:rdf="http://www.w3.org/1999/02/22-rdf-syntax-ns#" xmlns:sodipodi="http://sodipodi.sourceforge.net/DTD/sodipodi-0.dtd" xmlns:svg="http://www.w3.org/2000/svg"><defs id="defs12"/><g id="g3869"><g id="g11737" style="fill:#282828;fill-opacity:1"><rect height="512" id="rect2987" style="fill:#282828;fill-opacity:1;fill-rule:nonzero;stroke:none" width="512" x="0" y="0"/><path d="m 130.10475,250.1215 120.1122,-120.83213 c 30.1558,-30.320263 79.0273,-30.320263 109.1654,0 7.2178,7.60007 6.88,19.89794 -0.5467,27.36911 -7.5423,7.59118 -19.7424,7.59118 -27.3025,0 l -1.8222,-2.11557 c -15.1557,-12.92456 -37.8981,-12.19122 -52.2049,2.2089 l -122.8099,123.52551 c -8.089,7.49784 -20.3024,7.49784 -27.8358,-0.08 -7.5423,-7.57784 -7.5423,-19.87573 0,-27.45357 1.0133,-1.0089 2.0933,-1.88002 3.2444,-2.62225 z m 269.6646,2.62669 c -7.5423,-7.57784 -19.7468,-7.57784 -27.2891,0 -1.0045,1.02223 -1.8845,2.11558 -2.6312,3.27559 l -119.6277,120.33881 c -15.0756,15.15568 -39.5159,15.15568 -54.5871,0 l -0.5467,-0.0845 c -7.5289,-7.57784 -19.7424,-7.57784 -27.2891,0 -7.5289,7.56451 -7.5289,19.87573 0,27.44023 0.9645,0.96446 1.9911,1.81335 3.0756,2.54669 30.3114,27.8358 77.3207,27.03135 106.632,-2.45335 l 122.2633,-123.60995 c 7.5289,-7.57785 7.5289,-19.87573 0,-27.45357 z m -187.7972,79.72513 c -1.1422,0.75557 -2.2356,1.62224 -3.2356,2.63114 -7.5423,7.56895 -7.5423,19.87572 0,27.44023 7.5334,7.57785 19.7424,7.57785 27.8358,0.0933 l 122.81,-123.54773 c 15.0757,-15.15569 39.5159,-15.15569 54.5738,0 15.0934,15.16458 15.0934,39.7559 0,54.91159 L 297.50625,411.6962 c 15.089,15.15568 39.5159,15.15568 54.5871,0 l 89.1652,-90.24078 c 30.1336,-30.32026 30.1336,-79.48068 0,-109.81427 -30.1336,-30.30249 -79.014,-30.30249 -109.1653,0 l -120.1211,120.83214 z m -16.3423,-11.01787 122.2632,-123.60995 c 7.5379,-7.58673 7.5379,-19.88461 0,-27.44912 -7.5289,-7.58674 -19.7557,-7.58674 -27.2891,0 -1.0133,1.00001 -1.8845,2.10668 -2.6178,3.26669 l -119.641,120.34326 c -15.0757,15.16457 -39.507,15.16457 -54.5738,0 -15.088996,-15.15569 -15.088996,-39.74701 0,-54.91159 l 116.4499,-117.68099 c -15.0668,-15.16902 -39.5159,-15.16902 -54.5872,0 l -89.165196,90.22743 c -30.1469,30.33359 -30.1469,79.49401 0,109.81427 30.146896,30.32915 79.036296,30.32915 109.160996,0 z" id="Squarespace" style="fill:#282828;fill-opacity:1"/></g><path d="m 455.71536,116.84709 c 0,0 -62.06146,0 -82.69232,0 l -5.91548,1.01776 v 7.94657 c 0,0.93332 2.82219,1.71554 3.6044,2.29775 0.74666,0.6311 2.76886,0.97332 3.59996,0.97332 l 7.49324,0.37333 c 8.49767,0.4 11.08431,2.24442 14.39538,5.35549 3.24885,3.22218 3.78217,8.68878 1.24887,16.37313 l -73.08355,190.79323 -2.79108,-0.8311 -46.43054,-104.43428 c 0.67555,-1.56887 1.07999,-2.44886 1.07999,-2.44886 l 38.00842,-78.12349 c 4.42217,-8.2399 8.70212,-15.60426 10.87542,-19.03532 3.96884,-6.25771 5.90215,-7.43991 16.72424,-7.98657 2.20887,0 3.05774,-1.08443 3.05774,-3.27996 v -7.90213 l -0.55555,-0.84888 c 0,0 -45.43944,-0.15555 -66.12807,0 l 0.0133,0.81333 v 7.90657 c 0,0.96443 -0.53333,1.73331 0.2,2.31552 0.78221,0.63111 1.11109,0.95555 1.95108,0.95555 l 3.09774,0.39555 c 8.45768,0.39999 12.23985,2.82663 13.39095,4.35106 2.0222,2.7333 2.96441,5.64882 -1.92887,17.38201 l -29.2663,64.0881 -26.44857,-59.44816 c -8.671,-18.99532 -10.81764,-24.87525 2.25775,-25.97302 l 3.51107,-0.81332 c 2.51552,0 2.12442,-0.99554 2.12442,-2.88441 v -8.31101 l -0.26222,-0.67999 c 0,0 -48.44385,0 -70.54581,0.0133 l -0.30221,0.81333 v 8.33323 c 0,1.87109 1.84442,2.35108 5.2666,2.86663 12.24429,1.75998 12.03096,3.16885 24.12859,29.53742 1.80887,3.95106 7.15103,15.86647 7.15103,15.86647 l 27.57299,59.51483 c 0,0 3.12885,7.64435 8.02213,19.51087 l -40.07062,87.83448 -2.28887,-0.64444 c 0,0 -62.18146,-144.08268 -80.16346,-192.29098 -1.89331,-4.96438 -2.71552,-8.67989 -2.71552,-10.96875 0,-4.89772 4.01773,-7.55102 12.05318,-7.90657 l 12.22652,-0.44 c 2.50219,0 6.59548,-1.04887 6.59548,-3.23107 v -7.90657 l -3.6844,-0.81777 c 0,0 -76.176849,-0.0933 -91.56333,0 l -2.52886,0.81777 v 8.3199 c 0,1.49331 1.99109,2.42219 5.45327,2.81774 9.462111,0.57333 15.817591,2.21775 18.795331,4.99105 2.96885,2.79108 6.19103,9.84433 10.368759,20.8353 22.60861,59.6615 70.67469,166.1313 94.06996,226.77945 6.72436,16.54647 15.21759,19.12421 25.47969,-0.51999 10.5732,-21.5464 31.90183,-69.37249 47.46164,-104.67428 14.55538,35.21735 34.37291,82.86121 43.93279,104.44762 7.6088,17.27534 16.28869,18.98199 25.09303,0.51554 23.03527,-56.23931 90.31001,-225.49057 90.31001,-225.49057 2.90663,-8.30657 6.9688,-14.70649 12.20429,-19.35532 5.19549,-4.59106 12.92873,-7.18658 23.77305,-7.69324 2.19552,0 3.05774,-1.10665 3.05774,-3.24885 v -7.94657 l -0.28445,-1.01776 z" id="Wikipedia" style="fill:#ffffff;fill-opacity:1"/></g></svg>